<svg xmlns="http://www.w3.org/2000/svg" xmlns:xlink="http://www.w3.org/1999/xlink" viewBox="0 0 816.889 669.889">
  <defs>
    <style>
      .cls-1 {
        fill: #fffbe4;
      }

      .cls-2 {
        fill: #4e4e4e;
        font-family: rounded-mplus-1c-regular, "Rounded M+ 1c";
      }

      .cls-2, .cls-20 {
        font-size: 18px;
      }

      .cls-3 {
        fill: #5ca781;
        stroke: #5ca781;
        stroke-width: 9px;
      }

      .cls-3, .cls-4 {
        font-size: 38px;
        font-family: rounded-mplus-1c-bold, "Rounded M+ 1c";
      }

      .cls-13, .cls-17, .cls-21, .cls-3, .cls-4, .cls-8 {
        font-weight: 700;
      }

      .cls-19, .cls-20, .cls-22, .cls-4, .cls-9 {
        fill: #fff;
      }

      .cls-5 {
        fill: url(#radial-gradient);
      }

      .cls-6 {
        fill: #ea5532;
      }

      .cls-11, .cls-15, .cls-6 {
        opacity: 0.5;
      }

      .cls-7 {
        fill: url(#linear-gradient);
      }

      .cls-8 {
        fill: #9a1000;
      }

      .cls-13, .cls-17, .cls-8 {
        font-size: 20px;
      }

      .cls-13, .cls-17, .cls-21, .cls-8 {
        font-family: Koruri-Bold, Koruri;
      }

      .cls-9 {
        font-size: 30px;
        font-family: Poppins-SemiBold, Poppins;
        font-weight: 600;
      }

      .cls-10 {
        fill: url(#radial-gradient-2);
      }

      .cls-11 {
        fill: #26b7bc;
      }

      .cls-12 {
        fill: url(#linear-gradient-2);
      }

      .cls-13 {
        fill: #00809a;
      }

      .cls-14 {
        fill: url(#radial-gradient-3);
      }

      .cls-15 {
        fill: #d4b572;
      }

      .cls-16 {
        fill: url(#linear-gradient-3);
      }

      .cls-17 {
        fill: #542b02;
      }

      .cls-18 {
        fill: #ec706d;
      }

      .cls-20, .cls-22 {
        font-family: Koruri-Regular, Koruri;
      }

      .cls-21 {
        fill: #fbff7e;
        font-size: 44px;
      }

      .cls-22 {
        font-size: 10px;
      }

      .cls-23 {
        fill: none;
        stroke: #fff;
      }

      .cls-24 {
        filter: url(#長方形_496);
      }
    </style>
    <filter id="長方形_496" x="59.889" y="62.889" width="757" height="607" filterUnits="userSpaceOnUse">
      <feOffset dy="3" input="SourceAlpha"/>
      <feGaussianBlur stdDeviation="3" result="blur"/>
      <feFlood flood-opacity="0.161"/>
      <feComposite operator="in" in2="blur"/>
      <feComposite in="SourceGraphic"/>
    </filter>
    <radialGradient id="radial-gradient" cx="15.395" cy="13.134" r="38.864" gradientUnits="userSpaceOnUse">
      <stop offset="0" stop-color="#fbdac8"/>
      <stop offset="0.012" stop-color="#fad7c4"/>
      <stop offset="0.163" stop-color="#f5b292"/>
      <stop offset="0.314" stop-color="#f1926b"/>
      <stop offset="0.464" stop-color="#ee7850"/>
      <stop offset="0.613" stop-color="#ec653e"/>
      <stop offset="0.759" stop-color="#ea5935"/>
      <stop offset="0.9" stop-color="#ea5532"/>
    </radialGradient>
    <linearGradient id="linear-gradient" x1="0.5" x2="0.5" y2="1" gradientUnits="objectBoundingBox">
      <stop offset="0.6" stop-color="#fff" stop-opacity="0"/>
      <stop offset="1" stop-color="#9fa0a0" stop-opacity="0.502"/>
    </linearGradient>
    <radialGradient id="radial-gradient-2" cx="240.37" cy="13.134" r="39.918" gradientTransform="translate(0.207 0.347) scale(0.987 0.974)" gradientUnits="userSpaceOnUse">
      <stop offset="0" stop-color="#afdde7"/>
      <stop offset="0.128" stop-color="#95d3dc"/>
      <stop offset="0.325" stop-color="#71c6ce"/>
      <stop offset="0.521" stop-color="#50bec4"/>
      <stop offset="0.714" stop-color="#33b9be"/>
      <stop offset="0.9" stop-color="#26b7bc"/>
    </radialGradient>
    <linearGradient id="linear-gradient-2" x1="0.5" x2="0.5" y2="1" xlink:href="#linear-gradient"/>
    <radialGradient id="radial-gradient-3" cx="352.754" cy="13.134" r="39.918" gradientTransform="translate(0.207 0.347) scale(0.987 0.974)" gradientUnits="userSpaceOnUse">
      <stop offset="0" stop-color="#f5e6b4"/>
      <stop offset="0.218" stop-color="#e7d197"/>
      <stop offset="0.45" stop-color="#ddc282"/>
      <stop offset="0.679" stop-color="#d6b876"/>
      <stop offset="0.9" stop-color="#d4b572"/>
    </radialGradient>
    <linearGradient id="linear-gradient-3" x1="0.499" x2="0.499" y2="1" xlink:href="#linear-gradient"/>
  </defs>
  <g id="グループ化_1735" data-name="グループ化 1735" transform="translate(-356.387 -1934.111)">
    <g class="cls-24" transform="matrix(1, 0, 0, 1, 356.39, 1934.11)">
      <rect id="長方形_496-2" data-name="長方形 496" class="cls-1" width="739" height="589" rx="16" transform="translate(68.89 68.89)"/>
    </g>
    <text id="その理由は_" data-name="その理由は・・・・" class="cls-2" transform="translate(795.276 2173)"><tspan x="-81" y="0">その</tspan><tspan y="0">理由</tspan><tspan y="0">は・・・・</tspan></text>
    <text id="合宿免許Happyは_たくさんのお客様に選ばれています" data-name="合宿免許Happyは
たくさんのお客様に選ばれています" class="cls-3" transform="translate(794.776 2076)"><tspan x="-151.658" y="0">合宿免許</tspan><tspan y="0">Happy</tspan><tspan y="0">は</tspan><tspan x="-304" y="50">たくさんのお</tspan><tspan y="50">客様</tspan><tspan y="50">に</tspan><tspan y="50">選</tspan><tspan y="50">ばれています</tspan></text>
    <text id="合宿免許Happyは_たくさんのお客様に選ばれています-2" data-name="合宿免許Happyは
たくさんのお客様に選ばれています" class="cls-4" transform="translate(795.276 2076)"><tspan x="-151.658" y="0">合宿免許</tspan><tspan y="0">Happy</tspan><tspan y="0">は</tspan><tspan x="-304" y="50">たくさんのお</tspan><tspan y="50">客様</tspan><tspan y="50">に</tspan><tspan y="50">選</tspan><tspan y="50">ばれています</tspan></text>
    <path id="パス_988" data-name="パス 988" class="cls-5" d="M46.589,23.295A23.295,23.295,0,1,1,23.295,0,23.275,23.275,0,0,1,46.589,23.295Z" transform="translate(484.276 2205)"/>
    <path id="パス_989" data-name="パス 989" class="cls-6" d="M46.589,23.295A23.295,23.295,0,1,1,23.295,0,23.275,23.275,0,0,1,46.589,23.295Z" transform="translate(484.276 2205)"/>
    <path id="パス_990" data-name="パス 990" class="cls-7" d="M46.589,23.295A23.295,23.295,0,1,1,23.295,0,23.275,23.275,0,0,1,46.589,23.295Z" transform="translate(484.276 2205)"/>
    <text id="教習所との強いパイプで_他の業者よりもお得な情報や最新情報が豊富_他で断られる時期でも見つかる場合多数_" data-name="教習所との強いパイプで、他の業者よりもお得な情報や最新情報が豊富！他で断られる時期でも見つかる場合多数！！
" class="cls-8" transform="translate(548.125 2195)"><tspan x="0" y="22">教習所</tspan><tspan y="22">との</tspan><tspan y="22">強</tspan><tspan y="22">いパイプで、</tspan><tspan y="22">他</tspan><tspan y="22">の</tspan><tspan y="22">業者</tspan><tspan y="22">よりもお</tspan><tspan y="22">得</tspan><tspan y="22">な</tspan><tspan y="22">情報</tspan><tspan y="22">や</tspan><tspan y="22">最新情</tspan><tspan x="0" y="52">報</tspan><tspan y="52">が</tspan><tspan y="52">豊富！他</tspan><tspan y="52">で</tspan><tspan y="52">断</tspan><tspan y="52">られる</tspan><tspan y="52">時期</tspan><tspan y="52">でも</tspan><tspan y="52">見</tspan><tspan y="52">つかる</tspan><tspan y="52">場合多数！！</tspan></text>
    <text id="_1" data-name="1" class="cls-9" transform="translate(507.276 2240)"><tspan x="-5.43" y="0">1</tspan></text>
    <path id="パス_991" data-name="パス 991" class="cls-10" d="M272.017,23.295a23.611,23.611,0,0,1-47.217,0,23.611,23.611,0,0,1,47.217,0Z" transform="translate(259.476 2287)"/>
    <path id="パス_992" data-name="パス 992" class="cls-11" d="M272.017,23.295a23.611,23.611,0,0,1-47.217,0,23.611,23.611,0,0,1,47.217,0Z" transform="translate(259.476 2287)"/>
    <path id="パス_993" data-name="パス 993" class="cls-12" d="M272.017,23.295a23.611,23.611,0,0,1-47.217,0,23.611,23.611,0,0,1,47.217,0Z" transform="translate(259.476 2287)"/>
    <text id="お客様のご希望を丁寧にヒアリング_ご予算_時期_目的などからベストなご提案を行います_" data-name="お客様のご希望を丁寧にヒアリング。ご予算・時期・目的などからベストなご提案を行います！" class="cls-13" transform="translate(548.125 2276)"><tspan x="0" y="22">お</tspan><tspan y="22">客様</tspan><tspan y="22">のご</tspan><tspan y="22">希望</tspan><tspan y="22">を</tspan><tspan y="22">丁寧</tspan><tspan y="22">にヒアリング。ご</tspan><tspan y="22">予算・時期・目的</tspan><tspan y="22">など</tspan><tspan x="0" y="52">からベストなご</tspan><tspan y="52">提案</tspan><tspan y="52">を</tspan><tspan y="52">行</tspan><tspan y="52">います！</tspan></text>
    <text id="_2" data-name="2" class="cls-9" transform="translate(507.276 2322)"><tspan x="-8.61" y="0">2</tspan></text>
    <path id="パス_994" data-name="パス 994" class="cls-14" d="M384.417,23.295a23.611,23.611,0,0,1-47.217,0,23.611,23.611,0,0,1,47.217,0Z" transform="translate(147.076 2368)"/>
    <path id="パス_995" data-name="パス 995" class="cls-15" d="M384.417,23.295a23.611,23.611,0,0,1-47.217,0,23.611,23.611,0,0,1,47.217,0Z" transform="translate(147.076 2368)"/>
    <path id="パス_996" data-name="パス 996" class="cls-16" d="M384.417,23.295a23.611,23.611,0,0,1-47.217,0,23.611,23.611,0,0,1,47.217,0Z" transform="translate(147.076 2368)"/>
    <text id="オペレータは専任職員_だから問い合わせから入校まで_ご自宅からのアクセス方法なども丁寧にサポートが可能です_" data-name="オペレータは専任職員。だから問い合わせから入校まで、
ご自宅からのアクセス方法なども丁寧にサポートが可能です。" class="cls-17" transform="translate(548.125 2357)"><tspan x="0" y="22">オペレータは</tspan><tspan y="22">専任職員。</tspan><tspan y="22">だから</tspan><tspan y="22">問</tspan><tspan y="22">い</tspan><tspan y="22">合</tspan><tspan y="22">わせから</tspan><tspan y="22">入校</tspan><tspan y="22">まで、</tspan><tspan x="0" y="52">ご</tspan><tspan y="52">自宅</tspan><tspan y="52">からのアクセス</tspan><tspan y="52">方法</tspan><tspan y="52">なども</tspan><tspan y="52">丁寧</tspan><tspan y="52">にサポートが</tspan><tspan y="52">可能</tspan><tspan y="52">です。</tspan></text>
    <text id="_3" data-name="3" class="cls-9" transform="translate(507.276 2403)"><tspan x="-8.985" y="0">3</tspan></text>
    <path id="パス_985" data-name="パス 985" class="cls-18" d="M152.12,76.06c0,3.307-3.84,6.293-4.267,9.493s2.453,7.147,1.707,10.24c-.853,3.2-5.333,5.013-6.507,8-1.28,2.987.533,7.467-1.067,10.347-1.6,2.773-6.4,3.52-8.427,6.08s-1.387,7.36-3.733,9.707c-2.24,2.24-7.147,1.707-9.707,3.733-2.56,1.92-3.2,6.827-6.08,8.427-2.773,1.6-7.253-.213-10.347,1.067-2.987,1.28-4.907,5.653-8,6.507s-6.933-2.133-10.24-1.707c-3.2.427-6.187,4.267-9.493,4.267s-6.293-3.84-9.493-4.267-7.147,2.453-10.24,1.707c-3.2-.853-5.013-5.333-8-6.507-2.987-1.28-7.467.533-10.347-1.067-2.773-1.6-3.52-6.4-6.08-8.427s-7.36-1.387-9.707-3.733c-2.24-2.24-1.707-7.147-3.733-9.707-1.92-2.56-6.827-3.2-8.427-6.08-1.6-2.773.213-7.253-1.067-10.347-1.28-2.987-5.653-4.907-6.507-8s2.133-6.933,1.707-10.24C3.64,82.353-.2,79.367-.2,76.06s3.84-6.293,4.267-9.493S1.613,59.42,2.36,56.327c.853-3.2,5.333-5.013,6.507-8,1.28-2.987-.533-7.467,1.067-10.347,1.6-2.773,6.4-3.52,8.427-6.08s1.387-7.36,3.733-9.707c2.24-2.24,7.147-1.707,9.707-3.733,2.56-1.92,3.2-6.827,6.08-8.427,2.773-1.6,7.253.213,10.347-1.067,2.987-1.28,4.907-5.653,8-6.507s6.933,2.133,10.24,1.707C69.667,3.74,72.653-.1,75.96-.1s6.293,3.84,9.493,4.267S92.6,1.713,95.693,2.46c3.2.853,5.013,5.333,8,6.507,2.987,1.28,7.467-.533,10.347,1.067,2.773,1.6,3.52,6.4,6.08,8.427s7.36,1.387,9.707,3.733c2.24,2.24,1.707,7.147,3.733,9.707,1.92,2.56,6.827,3.2,8.427,6.08,1.6,2.773-.213,7.253,1.067,10.347,1.28,2.987,5.653,4.907,6.507,8s-2.027,6.933-1.707,10.24C148.28,69.767,152.12,72.753,152.12,76.06Z" transform="matrix(0.966, -0.259, 0.259, 0.966, 357.219, 1974.192)"/>
    <path id="パス_986" data-name="パス 986" class="cls-19" d="M76.767,136.926a.533.533,0,1,1,0-1.067c1.387,0,2.773-.107,4.053-.213a.483.483,0,1,1,.107.96,27.318,27.318,0,0,1-4.16.32Zm-4.16,0h0l-4.16-.32c-.32,0-.533-.32-.427-.533,0-.32.32-.533.533-.427,1.387.107,2.667.213,4.053.32a.5.5,0,0,1,.533.533A.488.488,0,0,1,72.607,136.926Zm12.267-.747a.709.709,0,0,1-.533-.427.585.585,0,0,1,.427-.64c1.387-.213,2.667-.427,4.053-.747.32-.107.533.107.64.427s-.107.533-.427.64c-1.28.213-2.667.533-4.16.747Zm-20.48-.107h0c-1.493-.213-2.773-.533-4.16-.853a.544.544,0,1,1,.213-1.067c1.28.32,2.667.64,3.947.853.32,0,.427.32.427.64C64.927,135.86,64.713,136.073,64.393,136.073Zm28.587-1.707a.587.587,0,0,1-.533-.32.518.518,0,0,1,.32-.64l3.84-1.28a.506.506,0,1,1,.32.96c-1.28.533-2.56.96-3.947,1.387C93.087,134.366,92.98,134.366,92.98,134.366Zm-36.587-.32h-.107c-1.28-.427-2.667-.853-3.947-1.387-.213-.107-.427-.427-.32-.64s.427-.427.64-.32c1.28.533,2.56.96,3.84,1.387a.475.475,0,0,1,.32.64C56.82,133.94,56.607,134.046,56.393,134.046Zm44.267-2.667c-.213,0-.427-.107-.427-.32a.513.513,0,0,1,.213-.64,38.318,38.318,0,0,0,3.627-1.813.549.549,0,1,1,.533.96,40.3,40.3,0,0,1-3.733,1.813Zm-51.84-.32h-.213c-1.28-.64-2.453-1.28-3.733-1.92a.549.549,0,1,1,.533-.96c1.173.64,2.453,1.28,3.627,1.92a.513.513,0,0,1,.213.64A.572.572,0,0,1,48.82,131.06Zm59.093-3.52a.554.554,0,0,1-.427-.213.562.562,0,0,1,.213-.747c1.173-.747,2.24-1.493,3.413-2.347a.533.533,0,1,1,.64.853,38.582,38.582,0,0,1-3.413,2.347A.623.623,0,0,0,107.913,127.54Zm-66.347-.533a.392.392,0,0,1-.32-.107c-1.173-.747-2.347-1.6-3.413-2.347a.533.533,0,1,1,.64-.853c1.067.853,2.24,1.6,3.307,2.347a.5.5,0,0,1,.107.747C41.887,126.9,41.78,127.006,41.567,127.006Zm72.96-4.373a.809.809,0,0,1-.427-.213.527.527,0,0,1,.107-.747,36.759,36.759,0,0,0,2.987-2.773.528.528,0,1,1,.747.747,38.221,38.221,0,0,1-3.093,2.773C114.74,122.633,114.633,122.633,114.527,122.633Zm-79.467-.64a.392.392,0,0,1-.32-.107c-1.067-.853-2.027-1.813-3.093-2.773a.528.528,0,1,1,.747-.747,36.76,36.76,0,0,0,2.987,2.773.516.516,0,0,1,0,.747A.392.392,0,0,1,35.06,121.993Zm85.333-5.013a.392.392,0,0,1-.32-.107.516.516,0,0,1,0-.747,36.986,36.986,0,0,0,2.667-3.093.533.533,0,1,1,.853.64c-.853,1.067-1.813,2.133-2.667,3.2C120.713,116.873,120.606,116.98,120.393,116.98Zm-91.2-.747a.809.809,0,0,1-.427-.213c-.96-1.067-1.813-2.133-2.667-3.2a.533.533,0,0,1,.853-.64l2.56,3.2a.516.516,0,0,1,0,.747C29.407,116.127,29.3,116.233,29.193,116.233Zm96.427-5.76a.392.392,0,0,1-.32-.107.527.527,0,0,1-.107-.747c.747-1.067,1.493-2.24,2.24-3.413a.549.549,0,0,1,.96.533l-2.24,3.52A.689.689,0,0,1,125.62,110.473Zm-101.44-.747a.554.554,0,0,1-.427-.213l-2.24-3.52a.549.549,0,1,1,.96-.533,36.769,36.769,0,0,0,2.133,3.413.657.657,0,0,1-.107.747A.392.392,0,0,1,24.18,109.727Zm105.6-6.293c-.107,0-.107,0-.213-.107a.513.513,0,0,1-.213-.64,39.753,39.753,0,0,0,1.707-3.733c.107-.213.427-.427.64-.32s.427.427.32.64a40.3,40.3,0,0,1-1.813,3.733A.391.391,0,0,1,129.78,103.433ZM20.02,102.58c-.213,0-.427-.107-.427-.32-.64-1.28-1.173-2.56-1.707-3.733a.506.506,0,1,1,.96-.32c.533,1.28,1.067,2.453,1.707,3.733a.513.513,0,0,1-.213.64Zm112.96-6.72h-.213a.475.475,0,0,1-.32-.64c.427-1.28.853-2.56,1.173-3.947a.506.506,0,1,1,.96.32,28.313,28.313,0,0,1-1.28,3.947C133.406,95.753,133.193,95.86,132.98,95.86ZM16.927,95.007a.587.587,0,0,1-.533-.32c-.427-1.28-.853-2.667-1.173-3.947a.506.506,0,0,1,.96-.32c.32,1.28.747,2.667,1.173,3.947a.518.518,0,0,1-.32.64Zm118.293-7.04h0c-.427-.107-.533-.32-.533-.64a24.725,24.725,0,0,0,.64-4.053c0-.32.32-.533.533-.427.32,0,.533.32.427.533-.213,1.387-.427,2.773-.64,4.053A.488.488,0,0,1,135.22,87.967ZM14.9,87.007a.709.709,0,0,1-.533-.427c-.213-1.387-.427-2.773-.64-4.053a.488.488,0,0,1,.427-.533c.213,0,.533.213.533.427.213,1.387.32,2.667.64,4.053.107.213-.107.427-.427.533Zm121.386-7.253h0a.5.5,0,0,1-.533-.533c.107-1.387.107-2.773.107-4.053a.533.533,0,1,1,1.067,0c0,1.387,0,2.773-.107,4.16A.488.488,0,0,1,136.286,79.753ZM13.94,78.793a.5.5,0,0,1-.533-.533c0-1.067-.107-2.133-.107-3.2V74.1a.533.533,0,1,1,1.067,0v.96a28.959,28.959,0,0,0,.107,3.093c0,.427-.213.64-.533.64ZM136.393,73.46a.5.5,0,0,1-.533-.533,24.962,24.962,0,0,0-.32-4.053.483.483,0,0,1,.96-.107l.32,4.16c.107.213-.107.533-.427.533ZM14.047,70.58h0a.571.571,0,0,1-.533-.533c.107-1.387.32-2.773.427-4.16,0-.32.32-.427.533-.427.32,0,.427.32.427.533-.213,1.387-.32,2.667-.427,4.053C14.58,70.367,14.367,70.58,14.047,70.58ZM135.54,65.247a.709.709,0,0,1-.533-.427c-.213-1.387-.533-2.667-.853-3.947-.107-.32.107-.533.427-.64s.533.107.64.427c.32,1.387.64,2.667.853,4.053a.5.5,0,0,1-.533.533ZM15.22,62.473h-.107a.585.585,0,0,1-.427-.64c.32-1.387.64-2.667,1.067-4.053a.506.506,0,1,1,.96.32,26.566,26.566,0,0,0-.96,3.947A.488.488,0,0,1,15.22,62.473Zm118.4-5.227a.587.587,0,0,1-.533-.32c-.427-1.28-.853-2.56-1.387-3.84a.506.506,0,1,1,.96-.32c.533,1.28.96,2.56,1.387,3.947a.518.518,0,0,1-.32.64C133.726,57.247,133.726,57.247,133.62,57.247ZM17.567,54.58h-.213a.475.475,0,0,1-.32-.64,29.324,29.324,0,0,1,1.6-3.84c.107-.213.427-.427.64-.213.213.107.427.427.213.64-.533,1.28-1.067,2.56-1.493,3.84C17.993,54.473,17.78,54.58,17.567,54.58Zm113.066-5.013c-.213,0-.427-.107-.427-.32a38.317,38.317,0,0,0-1.813-3.627.549.549,0,1,1,.96-.533c.64,1.173,1.28,2.453,1.92,3.733a.513.513,0,0,1-.213.64C130.74,49.567,130.74,49.567,130.633,49.567Zm-109.76-2.56c-.107,0-.213,0-.213-.107a.612.612,0,0,1-.213-.747c.64-1.173,1.387-2.453,2.027-3.627a.549.549,0,1,1,.96.533c-.747,1.173-1.387,2.347-2.027,3.52A.544.544,0,0,1,20.873,47.007ZM126.686,42.42a.554.554,0,0,1-.427-.213,36.878,36.878,0,0,0-2.347-3.307.533.533,0,1,1,.853-.64,38.586,38.586,0,0,1,2.347,3.413.657.657,0,0,1-.107.747ZM25.247,40.073a.392.392,0,0,1-.32-.107.527.527,0,0,1-.107-.747,34.569,34.569,0,0,1,2.56-3.307.533.533,0,0,1,.853.64c-.853,1.067-1.707,2.133-2.453,3.2C25.567,39.967,25.46,40.073,25.247,40.073Zm96.427-4.267a.809.809,0,0,1-.427-.213,36.761,36.761,0,0,0-2.773-2.987.528.528,0,0,1,.747-.747,38.224,38.224,0,0,1,2.773,3.093.527.527,0,0,1-.107.747C121.993,35.807,121.886,35.807,121.673,35.807Zm-91.2-2.133a.392.392,0,0,1-.32-.107.516.516,0,0,1,0-.747,38.075,38.075,0,0,1,2.987-2.88.528.528,0,0,1,.747.747l-2.88,2.88A4.619,4.619,0,0,0,30.473,33.673Zm85.44-3.733a.392.392,0,0,1-.32-.107c-1.067-.96-2.027-1.813-3.093-2.667a.533.533,0,0,1,.64-.853c1.067.853,2.133,1.707,3.2,2.667a.516.516,0,0,1,0,.747A.554.554,0,0,1,115.913,29.94Zm-79.36-1.92a.809.809,0,0,1-.427-.213.527.527,0,0,1,.107-.747c1.067-.853,2.133-1.707,3.307-2.56a.533.533,0,1,1,.64.853,36.269,36.269,0,0,0-3.2,2.453C36.767,28.02,36.66,28.02,36.553,28.02Zm72.96-3.2a.392.392,0,0,1-.32-.107c-1.173-.747-2.24-1.493-3.413-2.133a.549.549,0,0,1,.533-.96,32.262,32.262,0,0,1,3.52,2.24.5.5,0,0,1,.107.747A.426.426,0,0,1,109.513,24.82Zm-66.24-1.493a.554.554,0,0,1-.427-.213.562.562,0,0,1,.213-.747,39.662,39.662,0,0,1,3.627-2.027.707.707,0,0,1,.747.213.707.707,0,0,1-.213.747c-1.173.64-2.347,1.28-3.52,2.027Zm59.093-2.56c-.107,0-.107,0-.213-.107a39.757,39.757,0,0,0-3.733-1.707c-.213-.107-.427-.427-.32-.64s.427-.427.64-.32a39.757,39.757,0,0,1,3.733,1.707.513.513,0,0,1,.213.64C102.687,20.66,102.58,20.767,102.367,20.767Zm-51.84-1.28c-.213,0-.427-.107-.427-.32a.513.513,0,0,1,.213-.64c1.28-.533,2.56-1.067,3.84-1.493a.506.506,0,1,1,.32.96,38.891,38.891,0,0,0-3.733,1.493Zm44.267-1.92H94.58c-1.28-.427-2.56-.853-3.947-1.173a.506.506,0,1,1,.32-.96c1.387.32,2.667.747,3.947,1.173a.475.475,0,0,1,.32.64C95.113,17.46,95.007,17.567,94.793,17.567Zm-36.587-.853a.544.544,0,0,1-.533-.427.518.518,0,0,1,.32-.64,24.952,24.952,0,0,1,4.053-.96c.32-.107.533.107.64.427s-.107.533-.427.64c-1.28.32-2.667.64-3.947.96Zm28.587-1.28h0l-4.16-.64c-.32,0-.533-.32-.427-.533,0-.32.32-.533.533-.427,1.387.213,2.773.427,4.053.64a.585.585,0,0,1,.427.64C87.22,15.327,87.007,15.433,86.793,15.433Zm-20.48-.427a.709.709,0,0,1-.533-.427c0-.32.107-.533.427-.533,1.387-.213,2.773-.32,4.16-.427.213,0,.533.213.533.427a.488.488,0,0,1-.427.533c-1.387.107-2.773.213-4.16.427Zm12.267-.533h0c-1.173-.107-2.347-.107-3.52-.107h-.64a.533.533,0,1,1,0-1.067h.64c1.173,0,2.347,0,3.52.107a.533.533,0,1,1,0,1.067Z" transform="matrix(0.966, -0.259, 0.259, 0.966, 358.29, 1974.829)"/>
    <text id="顧客満足度" class="cls-20" transform="matrix(0.966, -0.259, 0.259, 0.966, 400.228, 2021.657)"><tspan x="0" y="0">顧客満足度</tspan></text>
    <text id="_90_" data-name="90％" class="cls-21" transform="matrix(0.966, -0.259, 0.259, 0.966, 410.872, 2064.157)"><tspan x="0" y="0">90％</tspan></text>
    <text id="_当社調べ_" data-name="（当社調べ）" class="cls-22" transform="matrix(0.966, -0.259, 0.259, 0.966, 427.512, 2065.189)"><tspan x="1.254" y="11">（当社調</tspan><tspan y="11">べ）</tspan></text>
    <path id="パス_987" data-name="パス 987" class="cls-23" d="M152.12,76.06c0,3.307-3.84,6.293-4.267,9.493s2.453,7.147,1.707,10.24c-.853,3.2-5.333,5.013-6.507,8-1.28,2.987.533,7.467-1.067,10.347-1.6,2.773-6.4,3.52-8.427,6.08s-1.387,7.36-3.733,9.707c-2.24,2.24-7.147,1.707-9.707,3.733-2.56,1.92-3.2,6.827-6.08,8.427-2.773,1.6-7.253-.213-10.347,1.067-2.987,1.28-4.907,5.653-8,6.507s-6.933-2.133-10.24-1.707c-3.2.427-6.187,4.267-9.493,4.267s-6.293-3.84-9.493-4.267-7.147,2.453-10.24,1.707c-3.2-.853-5.013-5.333-8-6.507-2.987-1.28-7.467.533-10.347-1.067-2.773-1.6-3.52-6.4-6.08-8.427s-7.36-1.387-9.707-3.733c-2.24-2.24-1.707-7.147-3.733-9.707-1.92-2.56-6.827-3.2-8.427-6.08-1.6-2.773.213-7.253-1.067-10.347-1.28-2.987-5.653-4.907-6.507-8s2.133-6.933,1.707-10.24C3.64,82.353-.2,79.367-.2,76.06s3.84-6.293,4.267-9.493S1.613,59.42,2.36,56.327c.853-3.2,5.333-5.013,6.507-8,1.28-2.987-.533-7.467,1.067-10.347,1.6-2.773,6.4-3.52,8.427-6.08s1.387-7.36,3.733-9.707c2.24-2.24,7.147-1.707,9.707-3.733,2.56-1.92,3.2-6.827,6.08-8.427,2.773-1.6,7.253.213,10.347-1.067,2.987-1.28,4.907-5.653,8-6.507s6.933,2.133,10.24,1.707C69.667,3.74,72.653-.1,75.96-.1s6.293,3.84,9.493,4.267S92.6,1.713,95.693,2.46c3.2.853,5.013,5.333,8,6.507,2.987,1.28,7.467-.533,10.347,1.067,2.773,1.6,3.52,6.4,6.08,8.427s7.36,1.387,9.707,3.733c2.24,2.24,1.707,7.147,3.733,9.707,1.92,2.56,6.827,3.2,8.427,6.08,1.6,2.773-.213,7.253,1.067,10.347,1.28,2.987,5.653,4.907,6.507,8s-2.027,6.933-1.707,10.24C148.28,69.767,152.12,72.753,152.12,76.06Z" transform="matrix(0.966, -0.259, 0.259, 0.966, 357.219, 1974.192)"/>
  </g>
</svg>
