<svg xmlns="http://www.w3.org/2000/svg" xmlns:xlink="http://www.w3.org/1999/xlink" viewBox="0 0 323.274 369.657">
  <defs>
    <style>
      .cls-1 {
        fill: #fffbe4;
      }

      .cls-2 {
        fill: #4e4e4e;
        font-size: 10px;
        font-family: rounded-mplus-1c-regular, "Rounded M+ 1c";
      }

      .cls-3 {
        fill: #9a1000;
      }

      .cls-3, .cls-8, .cls-9 {
        font-size: 12px;
      }

      .cls-23, .cls-3, .cls-8, .cls-9 {
        font-family: Koruri-Bold, Koruri;
      }

      .cls-15, .cls-16, .cls-23, .cls-3, .cls-8, .cls-9 {
        font-weight: 700;
      }

      .cls-4 {
        fill: url(#radial-gradient);
      }

      .cls-5 {
        fill: #ea5532;
      }

      .cls-12, .cls-18, .cls-5 {
        opacity: 0.5;
      }

      .cls-6 {
        fill: url(#linear-gradient);
      }

      .cls-10, .cls-16, .cls-21, .cls-22, .cls-24, .cls-7 {
        fill: #fff;
      }

      .cls-7 {
        font-size: 11px;
      }

      .cls-10, .cls-7 {
        font-family: Poppins-SemiBold, Poppins;
        font-weight: 600;
      }

      .cls-8 {
        fill: #00809a;
      }

      .cls-9 {
        fill: #542b02;
      }

      .cls-10 {
        font-size: 8px;
      }

      .cls-11 {
        fill: url(#radial-gradient-2);
      }

      .cls-12 {
        fill: #d4b572;
      }

      .cls-13 {
        fill: url(#linear-gradient-2);
      }

      .cls-14, .cls-15 {
        fill: #5ca781;
      }

      .cls-15 {
        stroke: #5ca781;
        stroke-width: 4px;
      }

      .cls-15, .cls-16 {
        font-size: 16px;
        font-family: rounded-mplus-1c-bold, "Rounded M+ 1c";
      }

      .cls-17 {
        fill: url(#radial-gradient-3);
      }

      .cls-18 {
        fill: #26b7bc;
      }

      .cls-19 {
        fill: url(#linear-gradient-3);
      }

      .cls-20 {
        fill: #ec706d;
      }

      .cls-22 {
        font-size: 7px;
      }

      .cls-22, .cls-24 {
        font-family: Koruri-Regular, Koruri;
      }

      .cls-23 {
        fill: #fbff7e;
        font-size: 17px;
      }

      .cls-24 {
        font-size: 5px;
      }

      .cls-25 {
        fill: none;
        stroke: #fff;
      }

      .cls-26 {
        filter: url(#長方形_799);
      }
    </style>
    <filter id="長方形_799" x="0" y="30.228" width="323.274" height="339.429" filterUnits="userSpaceOnUse">
      <feOffset dy="3" input="SourceAlpha"/>
      <feGaussianBlur stdDeviation="3" result="blur"/>
      <feFlood flood-opacity="0.161"/>
      <feComposite operator="in" in2="blur"/>
      <feComposite in="SourceGraphic"/>
    </filter>
    <radialGradient id="radial-gradient" cx="5.287" cy="4.511" r="13.347" gradientUnits="userSpaceOnUse">
      <stop offset="0" stop-color="#fbdac8"/>
      <stop offset="0.012" stop-color="#fad7c4"/>
      <stop offset="0.163" stop-color="#f5b292"/>
      <stop offset="0.314" stop-color="#f1926b"/>
      <stop offset="0.464" stop-color="#ee7850"/>
      <stop offset="0.613" stop-color="#ec653e"/>
      <stop offset="0.759" stop-color="#ea5935"/>
      <stop offset="0.9" stop-color="#ea5532"/>
    </radialGradient>
    <linearGradient id="linear-gradient" x1="0.5" x2="0.5" y2="1" gradientUnits="objectBoundingBox">
      <stop offset="0.6" stop-color="#fff" stop-opacity="0"/>
      <stop offset="1" stop-color="#9fa0a0" stop-opacity="0.502"/>
    </linearGradient>
    <radialGradient id="radial-gradient-2" cx="342.471" cy="4.511" r="13.527" gradientTransform="translate(0 0.06) scale(1 0.987)" gradientUnits="userSpaceOnUse">
      <stop offset="0" stop-color="#f5e6b4"/>
      <stop offset="0.218" stop-color="#e7d197"/>
      <stop offset="0.45" stop-color="#ddc282"/>
      <stop offset="0.679" stop-color="#d6b876"/>
      <stop offset="0.9" stop-color="#d4b572"/>
    </radialGradient>
    <linearGradient id="linear-gradient-2" x1="0.499" x2="0.499" y2="1" xlink:href="#linear-gradient"/>
    <radialGradient id="radial-gradient-3" cx="230.076" cy="4.511" r="13.527" gradientTransform="translate(0 0.06) scale(1 0.987)" gradientUnits="userSpaceOnUse">
      <stop offset="0" stop-color="#afdde7"/>
      <stop offset="0.128" stop-color="#95d3dc"/>
      <stop offset="0.325" stop-color="#71c6ce"/>
      <stop offset="0.521" stop-color="#50bec4"/>
      <stop offset="0.714" stop-color="#33b9be"/>
      <stop offset="0.9" stop-color="#26b7bc"/>
    </radialGradient>
    <linearGradient id="linear-gradient-3" x1="0.5" x2="0.5" y2="1" xlink:href="#linear-gradient"/>
  </defs>
  <g id="グループ化_1734" data-name="グループ化 1734" transform="translate(2 -1811.037)">
    <g class="cls-26" transform="matrix(1, 0, 0, 1, -2, 1811.04)">
      <rect id="長方形_799-2" data-name="長方形 799" class="cls-1" width="305.274" height="321.429" rx="16" transform="translate(9 36.23)"/>
    </g>
    <text id="その理由は_" data-name="その理由は・・・" class="cls-2" transform="translate(159 1913.965)"><tspan x="-40" y="0">その</tspan><tspan y="0">理由</tspan><tspan y="0">は・・・</tspan></text>
    <text id="教習所との強いパイプで_他の業者よりもお得な情報や最新情報が豊富_他で断られる時期でも見つかる場合多数_" data-name="教習所との強いパイプで、他の業者よりもお得な情報や最新情報が豊富！他で断られる時期でも見つかる場合多数！！
" class="cls-3" transform="translate(40 1922.904)"><tspan x="0" y="13">教習所</tspan><tspan y="13">との</tspan><tspan y="13">強</tspan><tspan y="13">いパイプで、</tspan><tspan y="13">他</tspan><tspan y="13">の</tspan><tspan y="13">業者</tspan><tspan y="13">よりもお</tspan><tspan y="13">得</tspan><tspan x="0" y="27">な</tspan><tspan y="27">情報</tspan><tspan y="27">や</tspan><tspan y="27">最新情報</tspan><tspan y="27">が</tspan><tspan y="27">豊富！他</tspan><tspan y="27">で</tspan><tspan y="27">断</tspan><tspan y="27">られる</tspan><tspan y="27">時期</tspan><tspan y="27">で</tspan><tspan x="0" y="41">も</tspan><tspan y="41">見</tspan><tspan y="41">つかる</tspan><tspan y="41">場合多数！！</tspan></text>
    <path id="パス_988" data-name="パス 988" class="cls-4" d="M16,8A8,8,0,1,1,8,0,7.993,7.993,0,0,1,16,8Z" transform="translate(21 1924)"/>
    <path id="パス_989" data-name="パス 989" class="cls-5" d="M16,8A8,8,0,1,1,8,0,7.993,7.993,0,0,1,16,8Z" transform="translate(21 1924)"/>
    <path id="パス_990" data-name="パス 990" class="cls-6" d="M16,8A8,8,0,1,1,8,0,7.993,7.993,0,0,1,16,8Z" transform="translate(21 1924)"/>
    <text id="_1" data-name="1" class="cls-7" transform="translate(29 1936)"><tspan x="-1.991" y="0">1</tspan></text>
    <text id="お客様のご希望を丁寧にヒアリング_ご予算_時期_目的などからベストなご提案を行います_" data-name="お客様のご希望を丁寧にヒアリング。ご予算・時期・目的などからベストなご提案を行います！" class="cls-8" transform="translate(40 1971)"><tspan x="0" y="13">お</tspan><tspan y="13">客様</tspan><tspan y="13">のご</tspan><tspan y="13">希望</tspan><tspan y="13">を</tspan><tspan y="13">丁寧</tspan><tspan y="13">にヒアリング。ご</tspan><tspan y="13">予算・</tspan><tspan x="0" y="27">時期・目的</tspan><tspan y="27">などからベストなご</tspan><tspan y="27">提案</tspan><tspan y="27">を</tspan><tspan y="27">行</tspan><tspan y="27">いま</tspan><tspan x="0" y="41">す！</tspan></text>
    <text id="オペレータは専任職員_だから問い合わせから入校まで_ご自宅からのアクセス方法なども丁寧にサポートが可能です_" data-name="オペレータは専任職員。だから問い合わせから入校まで、ご自宅からのアクセス方法なども丁寧にサポートが可能です。" class="cls-9" transform="translate(40 2018)"><tspan x="0" y="13">オペレータは</tspan><tspan y="13">専任職員。</tspan><tspan y="13">だから</tspan><tspan y="13">問</tspan><tspan y="13">い</tspan><tspan y="13">合</tspan><tspan y="13">わせから</tspan><tspan x="0" y="27">入校</tspan><tspan y="27">まで、ご</tspan><tspan y="27">自宅</tspan><tspan y="27">からのアクセス</tspan><tspan y="27">方法</tspan><tspan y="27">なども</tspan><tspan y="27">丁</tspan><tspan x="0" y="41">寧</tspan><tspan y="41">にサポートが</tspan><tspan y="41">可能</tspan><tspan y="41">です。</tspan></text>
    <text id="_2" data-name="2" class="cls-10" transform="translate(26.471 2021.834)"><tspan x="-2.296" y="0">2</tspan></text>
    <path id="パス_994" data-name="パス 994" class="cls-11" d="M353.2,8a8,8,0,1,1-8-8A7.993,7.993,0,0,1,353.2,8Z" transform="translate(-316.2 2020)"/>
    <path id="パス_995" data-name="パス 995" class="cls-12" d="M353.2,8a8,8,0,1,1-8-8A7.993,7.993,0,0,1,353.2,8Z" transform="translate(-316.2 2020)"/>
    <path id="パス_996" data-name="パス 996" class="cls-13" d="M353.2,8a8,8,0,1,1-8-8A7.993,7.993,0,0,1,353.2,8Z" transform="translate(-316.2 2020)"/>
    <rect id="長方形_806" data-name="長方形 806" class="cls-14" width="13.206" height="7.924" transform="matrix(0.616, -0.788, 0.788, 0.616, 256.505, 1895.946)"/>
    <text id="合宿免許Happyは_たくさんのお客様に選ばれています" data-name="合宿免許Happyは
たくさんのお客様に選ばれています" class="cls-15" transform="translate(32 1877.356)"><tspan x="0" y="0">合宿免許</tspan><tspan y="0">Happy</tspan><tspan y="0">は</tspan><tspan x="0" y="21">たくさんのお</tspan><tspan y="21">客様</tspan><tspan y="21">に</tspan><tspan y="21">選</tspan><tspan y="21">ばれています</tspan></text>
    <rect id="長方形_813" data-name="長方形 813" class="cls-14" width="5.529" height="4.952" transform="translate(150.234 1873.383)"/>
    <rect id="長方形_814" data-name="長方形 814" class="cls-14" width="5.529" height="4.952" transform="translate(108.234 1872.383)"/>
    <rect id="長方形_815" data-name="長方形 815" class="cls-14" width="5.529" height="4.952" transform="translate(79.234 1872.383)"/>
    <rect id="長方形_816" data-name="長方形 816" class="cls-14" width="5.529" height="4.952" transform="translate(197.234 1893.383)"/>
    <rect id="長方形_817" data-name="長方形 817" class="cls-14" width="5.529" height="4.952" transform="translate(277.234 1890.383)"/>
    <text id="合宿免許Happyは_たくさんのお客様に選ばれています-2" data-name="合宿免許Happyは
たくさんのお客様に選ばれています" class="cls-16" transform="translate(32.257 1877.356)"><tspan x="0" y="0">合宿免許</tspan><tspan y="0">Happy</tspan><tspan y="0">は</tspan><tspan x="0" y="21">たくさんのお</tspan><tspan y="21">客様</tspan><tspan y="21">に</tspan><tspan y="21">選</tspan><tspan y="21">ばれています</tspan></text>
    <path id="パス_991" data-name="パス 991" class="cls-17" d="M240.8,8a8,8,0,1,1-8-8A7.993,7.993,0,0,1,240.8,8Z" transform="translate(-203.772 1973)"/>
    <path id="パス_992" data-name="パス 992" class="cls-18" d="M240.8,8a8,8,0,1,1-8-8A7.993,7.993,0,0,1,240.8,8Z" transform="translate(-203.772 1973)"/>
    <path id="パス_993" data-name="パス 993" class="cls-19" d="M240.8,8a8,8,0,1,1-8-8A7.993,7.993,0,0,1,240.8,8Z" transform="translate(-203.772 1973)"/>
    <text id="_2-2" data-name="2" class="cls-7" transform="translate(29 1985)"><tspan x="-3.157" y="0">2</tspan></text>
    <text id="_3" data-name="3" class="cls-7" transform="translate(28.972 2032)"><tspan x="-3.295" y="0">3</tspan></text>
    <path id="パス_1033" data-name="パス 1033" class="cls-20" d="M63.883,31.941c0,1.387-1.61,2.639-1.789,3.981s1.029,3,.716,4.295c-.358,1.342-2.237,2.1-2.729,3.355-.537,1.253.224,3.132-.447,4.339-.671,1.163-2.684,1.476-3.534,2.55s-.582,3.087-1.566,4.071c-.939.939-3,.716-4.071,1.566-1.074.805-1.342,2.863-2.55,3.534-1.163.671-3.042-.089-4.339.447-1.253.537-2.058,2.371-3.355,2.729s-2.908-.895-4.295-.716c-1.342.179-2.595,1.789-3.981,1.789s-2.639-1.61-3.982-1.789-3,1.029-4.295.716c-1.342-.358-2.1-2.237-3.355-2.729-1.253-.537-3.132.224-4.339-.447-1.163-.671-1.476-2.684-2.55-3.534s-3.087-.582-4.071-1.566c-.939-.939-.716-3-1.566-4.071-.805-1.074-2.863-1.342-3.534-2.55-.671-1.163.089-3.042-.447-4.339-.537-1.253-2.371-2.058-2.729-3.355s.895-2.908.716-4.295C1.61,34.581,0,33.328,0,31.941S1.61,29.3,1.789,27.96s-1.029-3-.716-4.295c.358-1.342,2.237-2.1,2.729-3.355.537-1.253-.224-3.132.447-4.339.671-1.163,2.684-1.476,3.534-2.55S8.366,10.334,9.35,9.35c.939-.939,3-.716,4.071-1.566,1.074-.805,1.342-2.863,2.55-3.534,1.163-.671,3.042.089,4.339-.447,1.253-.537,2.058-2.371,3.355-2.729s2.908.895,4.295.716C29.3,1.61,30.555,0,31.941,0s2.639,1.61,3.981,1.789,3-1.029,4.295-.716c1.342.358,2.1,2.237,3.355,2.729,1.253.537,3.132-.224,4.339.447,1.163.671,1.476,2.684,2.55,3.534s3.087.582,4.071,1.566c.939.939.716,3,1.566,4.071.805,1.074,2.863,1.342,3.534,2.55.671,1.163-.089,3.042.447,4.339.537,1.253,2.371,2.058,2.729,3.355s-.85,2.908-.716,4.295C62.272,29.3,63.883,30.555,63.883,31.941Z" transform="translate(247 1811.537)"/>
    <path id="パス_1034" data-name="パス 1034" class="cls-21" d="M26.618,51.849a.224.224,0,1,1,0-.447c.582,0,1.163-.045,1.7-.089a.2.2,0,0,1,.045.4,11.457,11.457,0,0,1-1.745.134Zm-1.745,0h0l-1.745-.134c-.134,0-.224-.134-.179-.224,0-.134.134-.224.224-.179.582.045,1.118.089,1.7.134a.211.211,0,0,1,.224.224A.2.2,0,0,1,24.873,51.849Zm5.145-.313a.3.3,0,0,1-.224-.179.245.245,0,0,1,.179-.268c.582-.089,1.118-.179,1.7-.313.134-.045.224.045.268.179s-.045.224-.179.268c-.537.089-1.118.224-1.745.313Zm-8.589-.045h0c-.626-.089-1.163-.224-1.745-.358a.228.228,0,1,1,.089-.447c.537.134,1.118.268,1.655.358.134,0,.179.134.179.268C21.652,51.4,21.563,51.491,21.429,51.491Zm11.989-.716a.246.246,0,0,1-.224-.134.217.217,0,0,1,.134-.268l1.61-.537a.212.212,0,1,1,.134.4c-.537.224-1.074.4-1.655.582C33.462,50.775,33.418,50.775,33.418,50.775Zm-15.344-.134h-.045c-.537-.179-1.118-.358-1.655-.582-.089-.045-.179-.179-.134-.268s.179-.179.268-.134c.537.224,1.074.4,1.61.582a.2.2,0,0,1,.134.268C18.252,50.6,18.163,50.641,18.073,50.641Zm18.565-1.118c-.089,0-.179-.045-.179-.134a.215.215,0,0,1,.089-.268,16.069,16.069,0,0,0,1.521-.761.23.23,0,0,1,.224.4,16.9,16.9,0,0,1-1.566.761ZM14.9,49.388h-.089c-.537-.268-1.029-.537-1.566-.805a.23.23,0,1,1,.224-.4c.492.268,1.029.537,1.521.805a.215.215,0,0,1,.089.268A.24.24,0,0,1,14.9,49.388Zm24.784-1.476a.232.232,0,0,1-.179-.089.236.236,0,0,1,.089-.313c.492-.313.939-.626,1.432-.984a.224.224,0,1,1,.268.358,16.181,16.181,0,0,1-1.432.984A.261.261,0,0,0,39.681,47.912Zm-27.826-.224a.164.164,0,0,1-.134-.045c-.492-.313-.984-.671-1.432-.984a.224.224,0,0,1,.268-.358c.447.358.939.671,1.387.984a.209.209,0,0,1,.045.313C11.989,47.644,11.945,47.689,11.855,47.689Zm30.6-1.834a.339.339,0,0,1-.179-.089.221.221,0,0,1,.045-.313,15.413,15.413,0,0,0,1.253-1.163.221.221,0,0,1,.313.313,16.03,16.03,0,0,1-1.3,1.163C42.544,45.854,42.5,45.854,42.454,45.854ZM9.126,45.586a.164.164,0,0,1-.134-.045c-.447-.358-.85-.761-1.3-1.163a.221.221,0,0,1,.313-.313A15.419,15.419,0,0,0,9.26,45.228a.216.216,0,0,1,0,.313A.164.164,0,0,1,9.126,45.586Zm35.789-2.1a.164.164,0,0,1-.134-.045.216.216,0,0,1,0-.313,15.511,15.511,0,0,0,1.118-1.3.224.224,0,1,1,.358.268c-.358.447-.761.895-1.118,1.342C45.049,43.439,45,43.483,44.915,43.483ZM6.666,43.17a.339.339,0,0,1-.179-.089c-.4-.447-.761-.895-1.118-1.342a.224.224,0,0,1,.358-.268L6.8,42.812a.216.216,0,0,1,0,.313C6.755,43.125,6.71,43.17,6.666,43.17Zm40.441-2.416a.164.164,0,0,1-.134-.045.221.221,0,0,1-.045-.313c.313-.447.626-.939.939-1.432a.23.23,0,1,1,.4.224l-.939,1.476A.289.289,0,0,1,47.107,40.754ZM4.563,40.441a.232.232,0,0,1-.179-.089l-.939-1.476a.23.23,0,1,1,.4-.224,15.42,15.42,0,0,0,.895,1.432A.276.276,0,0,1,4.7,40.4.164.164,0,0,1,4.563,40.441ZM48.852,37.8c-.045,0-.045,0-.089-.045a.215.215,0,0,1-.089-.268,16.671,16.671,0,0,0,.716-1.566c.045-.089.179-.179.268-.134s.179.179.134.268a16.9,16.9,0,0,1-.761,1.566A.164.164,0,0,1,48.852,37.8ZM2.818,37.444c-.089,0-.179-.045-.179-.134-.268-.537-.492-1.074-.716-1.566a.2.2,0,0,1,.134-.268.2.2,0,0,1,.268.134c.224.537.447,1.029.716,1.566a.215.215,0,0,1-.089.268Zm47.375-2.818H50.1a.2.2,0,0,1-.134-.268c.179-.537.358-1.074.492-1.655a.212.212,0,1,1,.4.134,11.875,11.875,0,0,1-.537,1.655C50.373,34.581,50.283,34.626,50.194,34.626ZM1.521,34.268a.246.246,0,0,1-.224-.134C1.118,33.6.939,33.015.805,32.478a.212.212,0,0,1,.4-.134c.134.537.313,1.118.492,1.655a.217.217,0,0,1-.134.268Zm49.612-2.953h0c-.179-.045-.224-.134-.224-.268a10.369,10.369,0,0,0,.268-1.7c0-.134.134-.224.224-.179.134,0,.224.134.179.224-.089.582-.179,1.163-.268,1.7A.2.2,0,0,1,51.133,31.315Zm-50.462-.4a.3.3,0,0,1-.224-.179c-.089-.582-.179-1.163-.268-1.7a.2.2,0,0,1,.179-.224c.089,0,.224.089.224.179.089.582.134,1.118.268,1.7.045.089-.045.179-.179.224Zm50.91-3.042h0a.211.211,0,0,1-.224-.224c.045-.582.045-1.163.045-1.7a.224.224,0,1,1,.447,0c0,.582,0,1.163-.045,1.745A.2.2,0,0,1,51.581,27.871Zm-51.312-.4a.211.211,0,0,1-.224-.224C.045,26.8,0,26.349,0,25.9v-.4a.211.211,0,0,1,.224-.224.211.211,0,0,1,.224.224v.4a12.146,12.146,0,0,0,.045,1.3c0,.179-.089.268-.224.268Zm51.357-2.237a.211.211,0,0,1-.224-.224,10.469,10.469,0,0,0-.134-1.7.2.2,0,0,1,.4-.045l.134,1.745c.045.089-.045.224-.179.224ZM.313,24.023h0A.24.24,0,0,1,.089,23.8c.045-.582.134-1.163.179-1.745,0-.134.134-.179.224-.179.134,0,.179.134.179.224-.089.582-.134,1.118-.179,1.7C.537,23.934.447,24.023.313,24.023Zm50.954-2.237a.3.3,0,0,1-.224-.179c-.089-.582-.224-1.118-.358-1.655-.045-.134.045-.224.179-.268s.224.045.268.179c.134.582.268,1.118.358,1.7a.209.209,0,0,1-.224.224ZM.805,20.623H.761a.245.245,0,0,1-.179-.268c.134-.582.268-1.118.447-1.7a.188.188,0,0,1,.268-.134.188.188,0,0,1,.134.268,11.142,11.142,0,0,0-.4,1.655A.2.2,0,0,1,.805,20.623Zm49.657-2.192a.246.246,0,0,1-.224-.134c-.179-.537-.358-1.074-.582-1.61a.212.212,0,0,1,.4-.134c.224.537.4,1.074.582,1.655a.217.217,0,0,1-.134.268C50.507,18.431,50.507,18.431,50.462,18.431ZM1.789,17.313H1.7a.2.2,0,0,1-.134-.268,12.3,12.3,0,0,1,.671-1.61c.045-.089.179-.179.268-.089.089.045.179.179.089.268-.224.537-.447,1.074-.626,1.61C1.968,17.268,1.879,17.313,1.789,17.313Zm47.42-2.1c-.089,0-.179-.045-.179-.134a16.069,16.069,0,0,0-.761-1.521.23.23,0,1,1,.4-.224c.268.492.537,1.029.805,1.566a.215.215,0,0,1-.089.268C49.254,15.21,49.254,15.21,49.21,15.21ZM3.176,14.137c-.045,0-.089,0-.089-.045A.257.257,0,0,1,3,13.779c.268-.492.582-1.029.85-1.521a.257.257,0,0,1,.313-.089.257.257,0,0,1,.089.313c-.313.492-.582.984-.85,1.476A.228.228,0,0,1,3.176,14.137Zm44.378-1.924a.232.232,0,0,1-.179-.089,15.465,15.465,0,0,0-.984-1.387.224.224,0,0,1,.358-.268,16.182,16.182,0,0,1,.984,1.432.276.276,0,0,1-.045.313ZM5.01,11.229a.164.164,0,0,1-.134-.045.221.221,0,0,1-.045-.313A14.5,14.5,0,0,1,5.905,9.484a.276.276,0,0,1,.313-.045.276.276,0,0,1,.045.313c-.358.447-.716.895-1.029,1.342C5.145,11.184,5.1,11.229,5.01,11.229ZM45.452,9.439a.339.339,0,0,1-.179-.089A15.418,15.418,0,0,0,44.11,8.1a.221.221,0,0,1,.313-.313,16.028,16.028,0,0,1,1.163,1.3.221.221,0,0,1-.045.313C45.586,9.439,45.541,9.439,45.452,9.439ZM7.2,8.545A.164.164,0,0,1,7.068,8.5a.216.216,0,0,1,0-.313A15.969,15.969,0,0,1,8.321,6.979a.221.221,0,0,1,.313.313L7.426,8.5A1.937,1.937,0,0,0,7.2,8.545ZM43.036,6.979a.164.164,0,0,1-.134-.045c-.447-.4-.85-.761-1.3-1.118A.276.276,0,0,1,41.56,5.5a.276.276,0,0,1,.313-.045c.447.358.895.716,1.342,1.118a.216.216,0,0,1,0,.313A.232.232,0,0,1,43.036,6.979ZM9.752,6.174a.339.339,0,0,1-.179-.089.221.221,0,0,1,.045-.313c.447-.358.895-.716,1.387-1.074a.224.224,0,1,1,.268.358A15.211,15.211,0,0,0,9.931,6.084C9.842,6.174,9.8,6.174,9.752,6.174Zm30.6-1.342a.164.164,0,0,1-.134-.045c-.492-.313-.939-.626-1.432-.895a.257.257,0,0,1-.089-.313.257.257,0,0,1,.313-.089,13.531,13.531,0,0,1,1.476.939.209.209,0,0,1,.045.313A.179.179,0,0,1,40.352,4.831ZM12.571,4.205a.232.232,0,0,1-.179-.089.236.236,0,0,1,.089-.313A16.635,16.635,0,0,1,14,2.953a.3.3,0,0,1,.313.089.3.3,0,0,1-.089.313c-.492.268-.984.537-1.476.85ZM37.355,3.132c-.045,0-.045,0-.089-.045A16.674,16.674,0,0,0,35.7,2.371c-.089-.045-.179-.179-.134-.268s.179-.179.268-.134a16.674,16.674,0,0,1,1.566.716.215.215,0,0,1,.089.268C37.489,3.087,37.444,3.132,37.355,3.132ZM15.613,2.595c-.089,0-.179-.045-.179-.134a.215.215,0,0,1,.089-.268c.537-.224,1.074-.447,1.61-.626A.188.188,0,0,1,17.4,1.7a.188.188,0,0,1-.134.268,16.31,16.31,0,0,0-1.566.626Zm18.565-.805h-.089c-.537-.179-1.074-.358-1.655-.492a.188.188,0,0,1-.134-.268.188.188,0,0,1,.268-.134c.582.134,1.118.313,1.655.492a.2.2,0,0,1,.134.268C34.312,1.745,34.268,1.789,34.178,1.789ZM18.834,1.432a.228.228,0,0,1-.224-.179.217.217,0,0,1,.134-.268,10.465,10.465,0,0,1,1.7-.4c.134-.045.224.045.268.179s-.045.224-.179.268c-.537.134-1.118.268-1.655.4ZM30.823.895h0L29.078.626c-.134,0-.224-.134-.179-.224,0-.134.134-.224.224-.179.582.089,1.163.179,1.7.268A.245.245,0,0,1,31,.761C31,.85,30.913.895,30.823.895ZM22.234.716A.3.3,0,0,1,22.01.537c0-.134.045-.224.179-.224.582-.089,1.163-.134,1.745-.179.089,0,.224.089.224.179a.2.2,0,0,1-.179.224c-.582.045-1.163.089-1.745.179ZM27.378.492h0C26.886.447,26.394.447,25.9.447h-.268A.211.211,0,0,1,25.41.224.211.211,0,0,1,25.634,0H25.9c.492,0,.984,0,1.476.045A.211.211,0,0,1,27.6.268.211.211,0,0,1,27.378.492Z" transform="translate(253 1817.532)"/>
    <text id="顧客満足度" class="cls-22" transform="translate(260 1827.039)"><tspan x="1.484" y="8">顧客満足度</tspan></text>
    <text id="_90_" data-name="90％" class="cls-23" transform="translate(279 1851.112)"><tspan x="-18.204" y="0">90％</tspan></text>
    <text id="_当社調べ_" data-name="（当社調べ）" class="cls-24" transform="translate(263 1853.788)"><tspan x="1.061" y="5">（当社調</tspan><tspan y="5">べ）</tspan></text>
    <path id="パス_1035" data-name="パス 1035" class="cls-25" d="M63.883,31.941c0,1.387-1.61,2.639-1.789,3.981s1.029,3,.716,4.295c-.358,1.342-2.237,2.1-2.729,3.355-.537,1.253.224,3.132-.447,4.339-.671,1.163-2.684,1.476-3.534,2.55s-.582,3.087-1.566,4.071c-.939.939-3,.716-4.071,1.566-1.074.805-1.342,2.863-2.55,3.534-1.163.671-3.042-.089-4.339.447-1.253.537-2.058,2.371-3.355,2.729s-2.908-.895-4.295-.716c-1.342.179-2.595,1.789-3.981,1.789s-2.639-1.61-3.982-1.789-3,1.029-4.295.716c-1.342-.358-2.1-2.237-3.355-2.729-1.253-.537-3.132.224-4.339-.447-1.163-.671-1.476-2.684-2.55-3.534s-3.087-.582-4.071-1.566c-.939-.939-.716-3-1.566-4.071-.805-1.074-2.863-1.342-3.534-2.55-.671-1.163.089-3.042-.447-4.339-.537-1.253-2.371-2.058-2.729-3.355s.895-2.908.716-4.295C1.61,34.581,0,33.328,0,31.941S1.61,29.3,1.789,27.96s-1.029-3-.716-4.295c.358-1.342,2.237-2.1,2.729-3.355.537-1.253-.224-3.132.447-4.339.671-1.163,2.684-1.476,3.534-2.55S8.366,10.334,9.35,9.35c.939-.939,3-.716,4.071-1.566,1.074-.805,1.342-2.863,2.55-3.534,1.163-.671,3.042.089,4.339-.447,1.253-.537,2.058-2.371,3.355-2.729s2.908.895,4.295.716C29.3,1.61,30.555,0,31.941,0s2.639,1.61,3.981,1.789,3-1.029,4.295-.716c1.342.358,2.1,2.237,3.355,2.729,1.253.537,3.132-.224,4.339.447,1.163.671,1.476,2.684,2.55,3.534s3.087.582,4.071,1.566c.939.939.716,3,1.566,4.071.805,1.074,2.863,1.342,3.534,2.55.671,1.163-.089,3.042.447,4.339.537,1.253,2.371,2.058,2.729,3.355s-.85,2.908-.716,4.295C62.272,29.3,63.883,30.555,63.883,31.941Z" transform="translate(246.5 1811.537)"/>
  </g>
</svg>
