<svg xmlns="http://www.w3.org/2000/svg" xmlns:xlink="http://www.w3.org/1999/xlink" viewBox="0 0 70 90">
  <defs>
    <style>
      .cls-1, .cls-6 {
        fill: none;
      }

      .cls-2 {
        fill: #231815;
      }

      .cls-3 {
        fill: url(#radial-gradient);
      }

      .cls-4 {
        fill: #f8b62d;
      }

      .cls-5 {
        fill: url(#radial-gradient-2);
      }

      .cls-6 {
        stroke: #13ae67;
        stroke-linecap: round;
        stroke-linejoin: round;
        stroke-miterlimit: 10;
      }
    </style>
    <radialGradient id="radial-gradient" cx="22.306" cy="105.753" r="25.391" gradientTransform="translate(4.645 3.682) scale(0.791 0.791)" gradientUnits="userSpaceOnUse">
      <stop offset="0" stop-color="#f5a400"/>
      <stop offset="1" stop-color="#ee7836"/>
    </radialGradient>
    <radialGradient id="radial-gradient-2" cx="49.188" cy="47.323" r="18.747" gradientTransform="matrix(0.777, 0.137, -0.137, 0.777, 5.694, -0.072)" xlink:href="#radial-gradient"/>
  </defs>
  <g id="グループ化_1547" data-name="グループ化 1547" transform="translate(812 -2613)">
    <rect id="長方形_832" data-name="長方形 832" class="cls-1" width="70" height="90" transform="translate(-812 2613)"/>
    <g id="グループ化_1546" data-name="グループ化 1546" transform="translate(-337 -540)">
      <g id="グループ化_358" data-name="グループ化 358">
        <path id="パス_694" data-name="パス 694" class="cls-2" d="M172.1,61.748a12.314,12.314,0,0,0-12.488,5.929c-.667,1.038-1.149,1.334-1.927,1.445a1.183,1.183,0,0,0,.111-.519,1.068,1.068,0,0,0-.259-.741c.445-.111.852-.482.667-1.445l-1.186,1a1.567,1.567,0,0,0-.741-.185,1.687,1.687,0,0,0-.741.185l-1.186-1c-.185.963.222,1.334.667,1.445a1.379,1.379,0,0,0-.259.741,1.593,1.593,0,0,0,.074.445,4.488,4.488,0,0,1-2.742-1.371c-2.742-1.927-4.261-6.818-13.488-4.669,0,0,4.78.111,3.335,3.891,0,0,3.78-1.334,3.335,2.446,0,0,3.335-2.223,4.78,1.89,0,0,2.3-2.446,4.632-.482a1.349,1.349,0,0,0,1.112,1.26,1.5,1.5,0,0,1,.185.333c-.074.185,0,0,.259-.333a1.393,1.393,0,0,0,1.038-1.149,2.418,2.418,0,0,1,3.52.222s1-3.372,5.225-1.816c0,0-.445-3.854,3.372-3.039C169.467,66.343,167.651,62.9,172.1,61.748Z" transform="translate(-579.255 3121.226)"/>
        <path id="パス_695" data-name="パス 695" class="cls-2" d="M148.635,0a15.79,15.79,0,0,0-13.414,11.561,3.088,3.088,0,0,1-1.89,2.409,1.361,1.361,0,0,0-.037-.667,1.9,1.9,0,0,0-.556-.852c.519-.3.889-.889.333-2l-1.112,1.63a1.719,1.719,0,0,0-.963.037,1.773,1.773,0,0,0-.852.482l-1.779-.852c.074,1.26.7,1.556,1.3,1.556a1.546,1.546,0,0,0-.037,1,1.369,1.369,0,0,0,.259.519,5.658,5.658,0,0,1-3.854-.741c-4-1.445-7.559-7-18.231-1.223,0,0,5.966-1.482,5.447,3.706,0,0,4.224-2.927,4.965,1.89,0,0,3.372-3.891,6.559.741,0,0,2-3.78,5.521-2.149a1.887,1.887,0,0,0,1.779,1.223,3.34,3.34,0,0,0,.371.333c-.037.259,0,0,.185-.482a1.811,1.811,0,0,0,.889-1.742c.815-1.149,2.223-2.075,4.41-.889,0,0,.074-4.521,5.855-4,0,0-1.853-4.595,3.15-4.891C146.893,6.522,143.484,2.927,148.635,0Z" transform="translate(-559.868 3160)"/>
      </g>
      <g id="グループ化_359" data-name="グループ化 359" transform="translate(0 -2)">
        <g id="グループ化_350" data-name="グループ化 350" transform="translate(-472 3202.646)">
          <path id="パス_679" data-name="パス 679" class="cls-3" d="M35.226,90.286a9.8,9.8,0,0,0-5.632.741C27.74,88.433,25.369,88.1,22.775,88.1c-2.705,0-5.188.482-7.078,3.261a9.791,9.791,0,0,0-6.336-1.112C2.876,91.435-1.163,99.365.357,108S8.4,122.71,14.919,121.561a8.49,8.49,0,0,0,2.372-.778,7.82,7.82,0,0,0,5.521,2.594,7.552,7.552,0,0,0,5.225-2.3,8.956,8.956,0,0,0,1.7.482C36.263,122.71,42.785,116.633,44.3,108,45.786,99.365,41.747,91.435,35.226,90.286Z" transform="translate(-0.037 -88.1)"/>
          <g id="グループ化_347" data-name="グループ化 347" transform="translate(31.409 4.632)">
            <path id="パス_680" data-name="パス 680" class="cls-4" d="M85.022,100.6a21.461,21.461,0,0,1,2.112,6.188,32.4,32.4,0,0,1-.148,13.081,25.6,25.6,0,0,1-2.186,6.188,37.248,37.248,0,0,0,1.556-6.3,44.838,44.838,0,0,0,.185-12.858A33.918,33.918,0,0,0,85.022,100.6Z" transform="translate(-84.8 -100.6)"/>
          </g>
          <g id="グループ化_348" data-name="グループ化 348" transform="translate(11.14 4.632)">
            <path id="パス_681" data-name="パス 681" class="cls-4" d="M33.027,126.057a25.6,25.6,0,0,1-2.186-6.188,32.395,32.395,0,0,1-.148-13.081,21.538,21.538,0,0,1,2.149-6.188,33.917,33.917,0,0,0-1.519,6.3,47.081,47.081,0,0,0-.408,6.448,46.286,46.286,0,0,0,.556,6.411A37.248,37.248,0,0,0,33.027,126.057Z" transform="translate(-30.1 -100.6)"/>
          </g>
          <g id="グループ化_349" data-name="グループ化 349" transform="translate(9.695 9.597)">
            <path id="パス_682" data-name="パス 682" class="cls-2" d="M26.2,119.929l3-5.929,3,5.929Z" transform="translate(-26.2 -114)"/>
            <path id="パス_683" data-name="パス 683" class="cls-2" d="M77.8,119.929,80.839,114l3,5.929Z" transform="translate(-58.679 -114)"/>
          </g>
          <path id="パス_684" data-name="パス 684" class="cls-2" d="M55,135.713l1.89-3.113,1.927,3.113Z" transform="translate(-34.633 -116.11)"/>
          <path id="パス_685" data-name="パス 685" class="cls-2" d="M49.563,141.678V141.6a25.421,25.421,0,0,1-4.928,1.779l-.259,1.742H40.484v-.963c-1.186.148-2.446.259-3.743.3v1.63H32.258v-1.7c-1.3-.074-2.557-.222-3.743-.408v1.149H24.625l-.333-2.112a19.4,19.4,0,0,1-4.817-2.112,5.022,5.022,0,0,0-.074.741c0,3.372,3.261,6.336,8.041,7.819l.185-1.223h3.261l.333,2.038a23.483,23.483,0,0,0,6.448,0L38,148.237h3.261l.185,1.223C46.3,148.015,49.563,145.05,49.563,141.678Z" transform="translate(-12.225 -121.335)"/>
        </g>
        <g id="グループ化_357" data-name="グループ化 357" transform="translate(-460.712 3180.326)">
          <g id="グループ化_356" data-name="グループ化 356" transform="translate(0 3.073)">
            <g id="グループ化_355" data-name="グループ化 355">
              <path id="パス_686" data-name="パス 686" class="cls-5" d="M58.032,39.509a7.314,7.314,0,0,0-4.187-.185c-1-2.112-2.705-2.668-4.558-3-1.964-.333-3.817-.3-5.521,1.482a7.032,7.032,0,0,0-4.447-1.593c-4.854,0-8.819,5.225-8.819,11.709S34.428,59.63,39.319,59.63a5.979,5.979,0,0,0,1.816-.259A5.691,5.691,0,0,0,44.8,61.928a5.551,5.551,0,0,0,4.076-1,6.917,6.917,0,0,0,1.186.556c4.558,1.667,10.079-1.89,12.3-7.967C64.517,47.439,62.627,41.177,58.032,39.509Z" transform="translate(-30.5 -36.16)"/>
              <g id="グループ化_352" data-name="グループ化 352" transform="translate(21.233 4.684)">
                <g id="グループ化_351" data-name="グループ化 351">
                  <path id="パス_687" data-name="パス 687" class="cls-4" d="M91.209,48.8a15.911,15.911,0,0,1,.741,4.78,26.154,26.154,0,0,1-.408,4.817,22.2,22.2,0,0,1-1.371,4.632A17.949,17.949,0,0,1,87.8,67.216a27.023,27.023,0,0,0,1.927-4.373,32.26,32.26,0,0,0,1.223-4.595,33.941,33.941,0,0,0,.556-4.706A25.7,25.7,0,0,0,91.209,48.8Z" transform="translate(-87.8 -48.8)"/>
                </g>
              </g>
              <g id="グループ化_354" data-name="グループ化 354" transform="translate(7.87 2.424)">
                <g id="グループ化_353" data-name="グループ化 353">
                  <path id="パス_688" data-name="パス 688" class="cls-4" d="M52.54,61.154a17.167,17.167,0,0,1-.778-4.743,23.23,23.23,0,0,1,.3-4.817,22.905,22.905,0,0,1,1.26-4.669A16.192,16.192,0,0,1,55.653,42.7a23.977,23.977,0,0,0-1.89,4.373A32.436,32.436,0,0,0,52.651,51.7a33.69,33.69,0,0,0-.445,4.743A25.145,25.145,0,0,0,52.54,61.154Z" transform="translate(-51.739 -42.7)"/>
                </g>
              </g>
              <path id="パス_689" data-name="パス 689" class="cls-2" d="M69.8,70.8l1.779-2,.963,2.483Z" transform="translate(-55.237 -56.705)"/>
              <path id="パス_690" data-name="パス 690" class="cls-2" d="M65.458,74.01v-.037a18.161,18.161,0,0,1-3.78.667l-.408,1.223-2.816-.482.111-.7a23.609,23.609,0,0,1-2.742-.259L55.6,75.6l-3.261-.593.222-1.223q-1.39-.333-2.668-.778l-.148.815-2.816-.482.037-1.593A14.766,14.766,0,0,1,43.744,69.6c-.037.185-.111.333-.148.519-.445,2.446,1.556,5,4.854,6.67l.3-.852,2.372.408V77.9a23.078,23.078,0,0,0,2.3.556,17.834,17.834,0,0,0,2.372.259l.482-1.445,2.372.408V78.6C62.308,78.16,65.05,76.455,65.458,74.01Z" transform="translate(-38.704 -57.209)"/>
            </g>
            <path id="パス_691" data-name="パス 691" class="cls-2" d="M58.053,55.234a1.883,1.883,0,1,1-1.519-2.186A1.865,1.865,0,0,1,58.053,55.234Z" transform="translate(-45.491 -46.77)"/>
            <path id="パス_692" data-name="パス 692" class="cls-2" d="M94.953,61.734a1.883,1.883,0,1,1-1.519-2.186A1.865,1.865,0,0,1,94.953,61.734Z" transform="translate(-68.718 -50.862)"/>
          </g>
          <path id="パス_693" data-name="パス 693" class="cls-6" d="M81.1,32.178c0-1.223.185-2.927,1.89-2.927.963,0,1.334,1.149.519,1.556-1.63.815-1.63-3.187.741-2.927" transform="translate(-62.35 -27.867)"/>
        </g>
      </g>
    </g>
  </g>
</svg>
