<svg xmlns="http://www.w3.org/2000/svg" xmlns:xlink="http://www.w3.org/1999/xlink" viewBox="0 0 70 90">
  <defs>
    <style>
      .cls-1, .cls-2 {
        fill: none;
      }

      .cls-2 {
        stroke: #231815;
        stroke-linecap: round;
        stroke-linejoin: round;
        stroke-miterlimit: 10;
        stroke-width: 3.202px;
      }

      .cls-3 {
        fill: url(#linear-gradient);
      }

      .cls-4 {
        fill: url(#linear-gradient-2);
      }

      .cls-5 {
        fill: url(#linear-gradient-3);
      }

      .cls-6 {
        fill: url(#linear-gradient-4);
      }

      .cls-7 {
        fill: url(#radial-gradient);
      }

      .cls-8 {
        fill: url(#radial-gradient-2);
      }

      .cls-9 {
        fill: url(#radial-gradient-3);
      }

      .cls-10 {
        fill: url(#radial-gradient-4);
      }

      .cls-11 {
        fill: url(#radial-gradient-5);
      }
    </style>
    <linearGradient id="linear-gradient" x1="1.674" y1="0.453" x2="2.945" y2="0.453" gradientUnits="objectBoundingBox">
      <stop offset="0" stop-color="#1769b4"/>
      <stop offset="1" stop-color="#004898"/>
    </linearGradient>
    <linearGradient id="linear-gradient-2" x1="0.897" y1="0.628" x2="1.839" y2="0.628" xlink:href="#linear-gradient"/>
    <linearGradient id="linear-gradient-3" x1="1.273" y1="0.499" x2="2.243" y2="0.499" xlink:href="#linear-gradient"/>
    <linearGradient id="linear-gradient-4" x1="4.638" y1="0.691" x2="5.653" y2="0.691" xlink:href="#linear-gradient"/>
    <radialGradient id="radial-gradient" cx="170.278" cy="58.963" r="2.042" gradientTransform="matrix(1.829, 0.322, -0.322, 1.829, -7.61, 1.558)" gradientUnits="userSpaceOnUse">
      <stop offset="0" stop-color="#fff"/>
      <stop offset="0.622" stop-color="#ddeef7"/>
      <stop offset="1" stop-color="#cde6f4"/>
    </radialGradient>
    <radialGradient id="radial-gradient-2" cx="134.025" cy="18.241" r="2.041" gradientTransform="matrix(1.829, 0.322, -0.322, 1.829, -4.839, 0.94)" xlink:href="#radial-gradient"/>
    <radialGradient id="radial-gradient-3" cx="46.617" cy="1.974" r="2.041" gradientTransform="matrix(1.829, 0.322, -0.322, 1.829, -1.834, -2.596)" xlink:href="#radial-gradient"/>
    <radialGradient id="radial-gradient-4" cx="82.589" cy="16.513" r="2.041" gradientTransform="matrix(1.829, 0.322, -0.322, 1.829, -3.437, -1.35)" xlink:href="#radial-gradient"/>
    <radialGradient id="radial-gradient-5" cx="24.444" cy="19.59" r="1.748" gradientTransform="matrix(1.807, 0.319, -0.319, 1.807, -1.959, -3.282)" xlink:href="#radial-gradient"/>
  </defs>
  <g id="グループ化_1562" data-name="グループ化 1562" transform="translate(603 -2379)">
    <g id="グループ化_1539" data-name="グループ化 1539">
      <rect id="長方形_827" data-name="長方形 827" class="cls-1" width="70" height="90" transform="translate(-603 2379)"/>
      <g id="グループ化_1538" data-name="グループ化 1538" transform="translate(-598 2389)">
        <g id="グループ化_252" data-name="グループ化 252" transform="translate(0 17.338)">
          <g id="グループ化_251" data-name="グループ化 251">
            <line id="線_7" data-name="線 7" class="cls-2" x1="17.326" y2="47.571" transform="translate(17.971 0.327)"/>
            <g id="グループ化_250" data-name="グループ化 250">
              <path id="パス_186" data-name="パス 186" class="cls-3" d="M106.449,77.617a23.479,23.479,0,0,1-3.323,8.578c.034.034.034.068.068.136A12.4,12.4,0,0,1,118.418,90.3c0-.068.034-.1.034-.17A28.824,28.824,0,0,0,102.041,58.9c-.136,0-.305.034-.441.034A22.706,22.706,0,0,1,106.449,77.617Z" transform="translate(-67.151 -56.267)"/>
              <path id="パス_187" data-name="パス 187" class="cls-4" d="M0,62.482a13.58,13.58,0,0,1,3.086.17,13.179,13.179,0,0,1,10.681,10c.1-.034.237-.034.373-.068v-.034C16,61.94,24.616,54.344,34.483,53.768a2.376,2.376,0,0,1-.271-.339A28.8,28.8,0,0,0,0,62.482Z" transform="translate(0 -51.135)"/>
              <path id="パス_188" data-name="パス 188" class="cls-5" d="M62.044,58.9c-9.833.576-18.479,8.205-20.344,18.784v.034a23.026,23.026,0,0,1,8.511-.1c6.307,1.119,11.359,4.544,13.325,8.545A23.436,23.436,0,0,0,62.044,58.9Z" transform="translate(-27.561 -56.267)"/>
            </g>
            <path id="パス_189" data-name="パス 189" class="cls-6" d="M51.461,185.32a3.966,3.966,0,0,1-.678-.17,4.116,4.116,0,0,1-2.441-5.222l1.7-4.611a1.534,1.534,0,0,1,2.882,1.051l-1.7,4.611a1.008,1.008,0,1,0,1.9.678A1.534,1.534,0,0,1,56,182.71,4.127,4.127,0,0,1,51.461,185.32Z" transform="translate(-31.795 -132.54)"/>
          </g>
          <line id="線_8" data-name="線 8" class="cls-2" x1="0.814" y2="2.306" transform="translate(34.483 0.327)"/>
        </g>
        <path id="パス_190" data-name="パス 190" class="cls-7" d="M167.569,70.787c-.78,2.136-2,2.509-3.187,2.068s-1.9-1.492-1.119-3.628S167.7,63.7,167.7,63.7,168.349,68.65,167.569,70.787Z" transform="translate(-107.69 -42.101)"/>
        <path id="パス_191" data-name="パス 191" class="cls-8" d="M133.969,28.287c-.78,2.136-2,2.509-3.187,2.068s-1.9-1.492-1.119-3.628S134.1,21.2,134.1,21.2,134.749,26.15,133.969,28.287Z" transform="translate(-85.482 -14.012)"/>
        <path id="パス_192" data-name="パス 192" class="cls-9" d="M48.269,7.087c-.78,2.136-2,2.509-3.187,2.068s-1.9-1.492-1.119-3.628C44.709,3.391,48.4,0,48.4,0S49.049,4.95,48.269,7.087Z" transform="translate(-28.84)"/>
        <path id="パス_193" data-name="パス 193" class="cls-10" d="M83.069,23.587c-.78,2.136-2,2.509-3.187,2.068s-1.9-1.492-1.119-3.628S83.2,16.5,83.2,16.5,83.849,21.45,83.069,23.587Z" transform="translate(-51.841 -10.905)"/>
        <path id="パス_194" data-name="パス 194" class="cls-11" d="M24.9,22.9c-.678,1.8-1.7,2.1-2.713,1.729s-1.628-1.255-.949-3.086c.678-1.8,3.8-4.645,3.8-4.645S25.582,21.071,24.9,22.9Z" transform="translate(-13.85 -11.17)"/>
      </g>
    </g>
  </g>
</svg>
