<svg xmlns="http://www.w3.org/2000/svg" xmlns:xlink="http://www.w3.org/1999/xlink" viewBox="0 0 70 90">
  <defs>
    <style>
      .cls-1 {
        fill: none;
      }

      .cls-2 {
        fill: url(#radial-gradient);
      }

      .cls-3 {
        fill: #2f2522;
      }

      .cls-4 {
        fill: url(#radial-gradient-2);
      }

      .cls-5 {
        fill: #8fc31f;
      }

      .cls-6 {
        fill: url(#linear-gradient);
      }

      .cls-7 {
        fill: #231815;
      }
    </style>
    <radialGradient id="radial-gradient" cx="102.641" cy="15.195" r="29.364" gradientUnits="userSpaceOnUse">
      <stop offset="0" stop-color="#00913a"/>
      <stop offset="1" stop-color="#006934"/>
    </radialGradient>
    <radialGradient id="radial-gradient-2" cx="33.596" cy="87.084" r="37.468" gradientTransform="translate(16.669 3.785) scale(0.501 0.501)" xlink:href="#radial-gradient"/>
    <linearGradient id="linear-gradient" y1="0.501" x2="1" y2="0.501" gradientUnits="objectBoundingBox">
      <stop offset="0" stop-color="#e60012"/>
      <stop offset="1" stop-color="#c7000b"/>
    </linearGradient>
  </defs>
  <g id="グループ化_1561" data-name="グループ化 1561" transform="translate(596 -2692)">
    <g id="グループ化_1543" data-name="グループ化 1543">
      <rect id="長方形_830" data-name="長方形 830" class="cls-1" width="70" height="90" transform="translate(-596 2692)"/>
      <g id="グループ化_1542" data-name="グループ化 1542" transform="translate(-182.2 -292.134)">
        <path id="パス_242" data-name="パス 242" class="cls-2" d="M95.772,53.144A26.572,26.572,0,1,0,69.2,26.572,26.577,26.577,0,0,0,95.772,53.144Z" transform="translate(-467.429 2994.134)"/>
        <g id="グループ化_279" data-name="グループ化 279" transform="translate(-394.414 2997.359)">
          <g id="グループ化_278" data-name="グループ化 278">
            <path id="パス_243" data-name="パス 243" class="cls-3" d="M90.5,7.1c-1.136,1.181-2.271,2.407-3.407,3.588l-3.452,3.543.091-.363,1,2.816.136.318-.318.182L80.325,19.41l.091-.863,2.135,1.635.227.182v.318L82.6,23.77v.318l-.318.136c-1.181.545-2.362,1.136-3.543,1.681l.273-.863L80.416,27.4l.091.136v.182c.091,1.817.182,3.634.227,5.451v-.091l.681,4.27L81.1,36.9l3.543,1.681.318.136v.363c0,1.5-.045,3-.045,4.5l-.045-.182.908,2.862-.273-.363.954.5-.045-.045,3.5,1.272.273.091-.045.273-.273,1.862-.045-.182,1.771,3.861-.045-.045,2.771,1.771L91.408,53.7h-.045l-.045-.045-2-3.725-.045-.091v-.091l.182-1.908.227.363-3.588-1.09h-.045l-.954-.454-.182-.091-.045-.182-1-2.816-.045-.045v-.091c-.045-1.5-.045-3-.045-4.5l.318.5-3.543-1.635-.273-.136-.045-.318-.727-4.27v-.091c-.091-1.817-.182-3.634-.227-5.451l.091.273-1.408-2.362-.363-.59.59-.273,3.543-1.635-.318.636.273-3.089.227.454L79.78,19.319l-.636-.5.727-.363,4.27-2.044-.227.5-.863-2.862-.045-.182.136-.136,3.634-3.316C88.047,9.28,89.274,8.19,90.5,7.1Z" transform="translate(-77.6 -7.1)"/>
          </g>
        </g>
        <g id="グループ化_281" data-name="グループ化 281" transform="translate(-371.112 2996.178)">
          <g id="グループ化_280" data-name="グループ化 280">
            <path id="パス_244" data-name="パス 244" class="cls-3" d="M128.9,4.5c1.181,1.59,2.317,3.225,3.5,4.86l.045.091-.045.091-1.272,4.315-.136-.409,3.816,2.271.227.136-.045.318-.636,3.77-.136-.454,1.908,1.635.227.182-.045.318-.227,1.408v.136l-.091.136c-1,1.181-2,2.407-3.043,3.588l-.091-.908,3.089,2.135.273.182v3.5l-.227,2.135v.136l-.045.091L134.76,36.3l-.227-.818,2.362,1.454.454.273-.273.454-1.454,2.589-.045-.545,1.59,2.407.136.227-.091.227c-.454,1.09-.954,2.226-1.408,3.316-.273.59-.545,1.09-.818,1.635l-.818,1.59v-.136l.59,2.862v.045l-.045.045-1.272,1.59,1.09-1.726v.091l-.818-2.816v-.091l.045-.091.681-1.681c.227-.545.5-1.136.681-1.635.409-1.136.818-2.271,1.226-3.361l.045.454-1.726-2.317-.182-.273.136-.273,1.363-2.635.227.772-2.362-1.408-.5-.273.273-.5,1.181-2.135-.091.227.227-2.135v-3l.273.5-3.043-2.135-.545-.409.454-.5c1.045-1.181,2.089-2.362,3.089-3.5l-.136.273.273-1.408.182.5-1.862-1.681-.227-.182.045-.273.772-3.77.182.454-3.725-2.453-.227-.136.091-.273L132.08,9.5l.045.182C130.944,7.907,129.9,6.226,128.9,4.5Z" transform="translate(-128.9 -4.5)"/>
          </g>
        </g>
        <g id="グループ化_283" data-name="グループ化 283" transform="translate(-382.74 2996.905)">
          <g id="グループ化_282" data-name="グループ化 282">
            <path id="パス_245" data-name="パス 245" class="cls-3" d="M112.566,6.1c-1,1.408-2,2.816-3.043,4.27l-3.089,4.224.045-.227.59,3.77.045.227-.227.182-2.317,1.681-.045-.818,1.681.908.227.136.045.273.273,3.316v.182l-.091.182-.954,1.408-.227-.863,2.135.908.772.318-.59.636L104.981,29.9l-.318-1.045,2.362.454.409.091.045.409.454,3.089-.091-.273c.681,1.045,1.408,2.044,2.089,3.089l.182.227-.091.273-.727,2.362-.091-.5,2.089,2.862.091.091v.091l.636,4.043v.091l-.318,3.77-.227-.318,2.317.772.182.045v.182l-.136,3.316-.091-.091,1.862.318-1.908-.136h-.091v-.091l-.136-3.316.182.227-2.407-.636-.227-.045v-.273l.136-3.77V45.3l-.772-4,.091.227-2.18-2.816-.182-.227.091-.273.681-2.362.091.5c-.727-1-1.454-2.044-2.135-3.043l-.091-.091v-.136l-.5-3.089.5.5-2.362-.454-1.09-.227.772-.818,2.862-3.043.182.954-2.135-.954-.636-.273.409-.59.954-1.408-.091.363-.182-3.316.273.409-1.635-1-.681-.409.636-.409,2.407-1.59-.182.409-.363-3.77v-.136l.091-.091L109.3,10.1C110.341,8.78,111.431,7.417,112.566,6.1Z" transform="translate(-103.3 -6.1)"/>
          </g>
        </g>
        <g id="グループ化_285" data-name="グループ化 285" transform="translate(-411.8 3037.383)">
          <g id="グループ化_284" data-name="グループ化 284">
            <path id="パス_246" data-name="パス 246" class="cls-4" d="M52.527,79.5A26.554,26.554,0,0,1,.2,81.362,26.559,26.559,0,0,0,53.254,79.5Z" transform="translate(-0.109 -79.455)"/>
            <path id="パス_247" data-name="パス 247" class="cls-5" d="M25.164,102.429A26.56,26.56,0,0,0,52.418,79.4h-.5a26.584,26.584,0,0,1-51.736,0H0c0,.636.045,1.226.091,1.862A26.485,26.485,0,0,0,25.164,102.429Z" transform="translate(0 -79.4)"/>
            <path id="パス_248" data-name="パス 248" class="cls-6" d="M25.437,99.84a26.629,26.629,0,0,0,26.8-20.44H.5A26.547,26.547,0,0,0,25.437,99.84Z" transform="translate(-0.273 -79.4)"/>
          </g>
          <path id="パス_249" data-name="パス 249" class="cls-7" d="M57.28,101.889a1.245,1.245,0,0,1-1.09,1.363,1.275,1.275,0,0,1-1.09-1.363A5.011,5.011,0,0,1,56.19,99.8,5.344,5.344,0,0,1,57.28,101.889Z" transform="translate(-30.072 -90.534)"/>
          <path id="パス_250" data-name="パス 250" class="cls-7" d="M41.439,98.917a1.292,1.292,0,0,1-1.5.954,1.31,1.31,0,0,1-.545-1.681c.273-.727,1.726-1.59,1.726-1.59A5.42,5.42,0,0,1,41.439,98.917Z" transform="translate(-21.453 -88.787)"/>
          <path id="パス_251" data-name="パス 251" class="cls-7" d="M27.649,93.717a1.244,1.244,0,0,1-1.726.363,1.28,1.28,0,0,1,.091-1.771,5.09,5.09,0,0,1,2.18-.908A5.2,5.2,0,0,1,27.649,93.717Z" transform="translate(-13.976 -85.949)"/>
          <path id="パス_252" data-name="パス 252" class="cls-7" d="M72.052,98.19a1.244,1.244,0,0,1-.545,1.681,1.314,1.314,0,0,1-1.5-.954,4.923,4.923,0,0,1,.273-2.317S71.78,97.463,72.052,98.19Z" transform="translate(-38.167 -88.787)"/>
          <path id="パス_253" data-name="パス 253" class="cls-7" d="M83.526,92.408a1.127,1.127,0,1,1-1.681,1.408A5.2,5.2,0,0,1,81.3,91.5,5.21,5.21,0,0,1,83.526,92.408Z" transform="translate(-44.371 -86.004)"/>
        </g>
        <g id="グループ化_287" data-name="グループ化 287" transform="translate(-366.888 2996.678)">
          <g id="グループ化_286" data-name="グループ化 286">
            <path id="パス_254" data-name="パス 254" class="cls-3" d="M138.2,5.6c1.5.59,2.952,1.226,4.451,1.862L147.1,9.325l.182.091v.227l.045,2.135v.091l-.045.091-1.59,3.089-.363-.681,4.724.182.772.045-.318.727-1.363,3.316-.091-.59c.863.954,1.771,1.862,2.635,2.816l.273.318-.182.363-2.18,4.724-.273-.818c1.363.681,2.725,1.408,4.088,2.135l.908.5-.863.59L150.6,30.537l.227-.727c.636,1.5,1.226,3,1.862,4.5l.273.681-.681.136-2.589.454.409-.772,1.59,3.316.136.273-.182.227-2.18,3.043.091-.273.182,3.089v.227l-.182.091c-.863.454-1.771.908-2.635,1.363l.136-.227-.091,3.316v.091l-.091.045c-1.136.59-2.271,1.181-3.361,1.771,1.09-.681,2.135-1.363,3.225-2l-.091.136-.091-3.316v-.136l.136-.091c.863-.5,1.681-1,2.544-1.5l-.182.318-.318-3.043v-.136l.091-.136,2.089-3.089-.045.5-1.681-3.27-.318-.636.727-.136,2.589-.5-.409.772c-.636-1.5-1.272-3-1.908-4.451l-.182-.454.227-.59,2.816-1.908.045,1.045c-1.363-.681-2.725-1.408-4.088-2.135l-.5-.273.227-.545,2.226-4.724.091.681-2.589-2.862-.273-.273.136-.318,1.454-3.27.454.727L145.2,15.23l-.727-.045.363-.636,1.726-3.043-.045.182.045-2.135.182.318-4.315-2.135C141.062,7.054,139.654,6.327,138.2,5.6Z" transform="translate(-138.2 -5.6)"/>
          </g>
        </g>
      </g>
    </g>
  </g>
</svg>
