<svg xmlns="http://www.w3.org/2000/svg" xmlns:xlink="http://www.w3.org/1999/xlink" viewBox="0 0 70 90">
  <defs>
    <style>
      .cls-1 {
        fill: url(#radial-gradient);
      }

      .cls-2 {
        fill: url(#radial-gradient-2);
      }

      .cls-3 {
        fill: url(#linear-gradient);
      }

      .cls-16, .cls-23, .cls-4, .cls-5 {
        fill: none;
      }

      .cls-4 {
        stroke: #727171;
      }

      .cls-4, .cls-5 {
        stroke-linecap: round;
        stroke-linejoin: round;
      }

      .cls-16, .cls-4, .cls-5 {
        stroke-miterlimit: 10;
      }

      .cls-16, .cls-4 {
        stroke-width: 2px;
      }

      .cls-16, .cls-5 {
        stroke: #6a3906;
      }

      .cls-5 {
        stroke-width: 4px;
      }

      .cls-6 {
        fill: url(#linear-gradient-2);
      }

      .cls-7 {
        fill: url(#linear-gradient-3);
      }

      .cls-8 {
        fill: url(#linear-gradient-4);
      }

      .cls-9 {
        fill: url(#linear-gradient-5);
      }

      .cls-10 {
        fill: url(#linear-gradient-6);
      }

      .cls-11 {
        fill: url(#linear-gradient-7);
      }

      .cls-12 {
        fill: #3e3a39;
      }

      .cls-13 {
        fill: #231815;
      }

      .cls-14 {
        fill: url(#linear-gradient-8);
      }

      .cls-15 {
        fill: #910000;
      }

      .cls-17 {
        fill: url(#radial-gradient-3);
      }

      .cls-18 {
        fill: url(#radial-gradient-4);
      }

      .cls-19 {
        fill: url(#radial-gradient-5);
      }

      .cls-20 {
        fill: url(#radial-gradient-6);
      }

      .cls-21 {
        fill: url(#radial-gradient-7);
      }

      .cls-22 {
        fill: url(#radial-gradient-8);
      }
    </style>
    <radialGradient id="radial-gradient" cx="62.167" cy="55.896" r="19.93" gradientUnits="userSpaceOnUse">
      <stop offset="0" stop-color="#fff"/>
      <stop offset="0.375" stop-color="#fdfefe"/>
      <stop offset="0.57" stop-color="#f5fafd"/>
      <stop offset="0.724" stop-color="#e7f3fa"/>
      <stop offset="0.855" stop-color="#d5eaf6"/>
      <stop offset="0.896" stop-color="#cde6f4"/>
    </radialGradient>
    <radialGradient id="radial-gradient-2" cx="54.85" cy="120.465" r="25.675" xlink:href="#radial-gradient"/>
    <linearGradient id="linear-gradient" x1="0.002" y1="0.498" x2="1.001" y2="0.498" gradientUnits="objectBoundingBox">
      <stop offset="0" stop-color="#e60012"/>
      <stop offset="1" stop-color="#c7000b"/>
    </linearGradient>
    <linearGradient id="linear-gradient-2" x1="0" y1="0.503" x2="0.999" y2="0.503" xlink:href="#linear-gradient"/>
    <linearGradient id="linear-gradient-3" x1="-0.003" y1="0.5" x2="1.002" y2="0.5" gradientUnits="objectBoundingBox">
      <stop offset="0" stop-color="#cde6f4"/>
      <stop offset="0.082" stop-color="#dceef7"/>
      <stop offset="0.217" stop-color="#f0f7fc"/>
      <stop offset="0.355" stop-color="#fbfdfe"/>
      <stop offset="0.5" stop-color="#fff"/>
      <stop offset="0.646" stop-color="#fbfdfe"/>
      <stop offset="0.783" stop-color="#f0f7fc"/>
      <stop offset="0.916" stop-color="#ddeef8"/>
      <stop offset="1" stop-color="#cde6f4"/>
    </linearGradient>
    <linearGradient id="linear-gradient-4" x1="0" y1="0.503" x2="1" y2="0.503" xlink:href="#linear-gradient"/>
    <linearGradient id="linear-gradient-5" x1="-1.196" y1="0.5" x2="-0.194" y2="0.5" xlink:href="#linear-gradient-3"/>
    <linearGradient id="linear-gradient-6" x1="-0.003" y1="0.502" x2="0.995" y2="0.502" gradientUnits="objectBoundingBox">
      <stop offset="0" stop-color="#00913a"/>
      <stop offset="1" stop-color="#077837"/>
    </linearGradient>
    <linearGradient id="linear-gradient-7" x1="0.001" y1="0.5" x2="1" y2="0.5" xlink:href="#linear-gradient-6"/>
    <linearGradient id="linear-gradient-8" x1="-0.18" y1="0.495" x2="0.528" y2="0.495" gradientUnits="objectBoundingBox">
      <stop offset="0" stop-color="#f8b62d"/>
      <stop offset="1" stop-color="#f39800"/>
    </linearGradient>
    <radialGradient id="radial-gradient-3" cx="3.181" cy="2.568" r="4.183" xlink:href="#radial-gradient"/>
    <radialGradient id="radial-gradient-4" cx="2.555" cy="2.075" r="3.347" xlink:href="#radial-gradient"/>
    <radialGradient id="radial-gradient-5" cx="48.232" cy="2.063" r="3.347" xlink:href="#radial-gradient"/>
    <radialGradient id="radial-gradient-6" cx="144.543" cy="75.752" r="3.347" xlink:href="#radial-gradient"/>
    <radialGradient id="radial-gradient-7" cx="138.234" cy="36.408" r="3.905" xlink:href="#radial-gradient"/>
    <radialGradient id="radial-gradient-8" cx="2.243" cy="14.521" r="2.946" xlink:href="#radial-gradient"/>
  </defs>
  <g id="グループ化_1556" data-name="グループ化 1556" transform="translate(879 -2686)">
    <g id="グループ化_1549" data-name="グループ化 1549" transform="translate(-871 2696)">
      <g id="グループ化_193" data-name="グループ化 193" transform="translate(4.483 3.629)">
        <path id="パス_58" data-name="パス 58" class="cls-1" d="M74.47,57.335A13.735,13.735,0,1,1,60.735,43.6,13.721,13.721,0,0,1,74.47,57.335Z" transform="translate(-35.544 -32.443)"/>
        <path id="パス_59" data-name="パス 59" class="cls-2" d="M53,140.005a17.7,17.7,0,1,1,17.7-17.7A17.715,17.715,0,0,1,53,140.005Z" transform="translate(-27.812 -72.756)"/>
        <path id="パス_60" data-name="パス 60" class="cls-3" d="M79.646,23.11c0,1.865-3.663,3.391-8.173,3.391S63.3,24.976,63.3,23.11l1.424-9.53c0-1.526,3.018-2.781,6.749-2.781s6.749,1.255,6.749,2.781Z" transform="translate(-46.317 -10.766)"/>
        <path id="パス_61" data-name="パス 61" class="cls-4" d="M92.965,42.4a10.737,10.737,0,0,1,1.492.407,12,12,0,0,1,1.323.475,9.136,9.136,0,0,1,1.153.577,10.721,10.721,0,0,1,.916.61,3.211,3.211,0,0,1,.678.678,5.11,5.11,0,0,1,.407.678,1.7,1.7,0,0,1,.068.712,1.486,1.486,0,0,1-.237.644,2.161,2.161,0,0,1-.543.577,4.67,4.67,0,0,1-.814.475,7.592,7.592,0,0,1-1.051.373,11.566,11.566,0,0,1-1.255.271c-.441.068-.916.1-1.424.136a11.97,11.97,0,0,1-1.56,0c-.543-.034-1.085-.068-1.628-.136-.577-.068-1.119-.17-1.628-.271s-1.017-.237-1.492-.373a12.006,12.006,0,0,1-1.323-.475,9.137,9.137,0,0,1-1.153-.577,10.72,10.72,0,0,1-.916-.61,3.211,3.211,0,0,1-.678-.678" transform="translate(-59.534 -31.65)"/>
        <g id="グループ化_188" data-name="グループ化 188" transform="translate(38.552 29.605)">
          <line id="線_3" data-name="線 3" class="cls-5" y1="6.817" x2="6.817" transform="translate(0 4.85)"/>
          <path id="パス_62" data-name="パス 62" class="cls-6" d="M138.6,101.83s1.39-3.9,2.272-3.832.475,1.323.339,1.865c0,0,2.849-2.781,4.782-1.119,0,0,2.849,2.577-3.832,6.342Z" transform="translate(-134.632 -97.997)"/>
          <g id="グループ化_187" data-name="グループ化 187" transform="translate(2.546 3.651)">
            <path id="パス_63" data-name="パス 63" class="cls-7" d="M139.7,113.76a.952.952,0,0,1-1.323.034l-3.663-3.425a.924.924,0,1,1,1.255-1.357l3.663,3.425A.954.954,0,0,1,139.7,113.76Z" transform="translate(-134.408 -108.762)"/>
          </g>
        </g>
        <g id="グループ化_190" data-name="グループ化 190" transform="translate(0 29.605)">
          <line id="線_4" data-name="線 4" class="cls-5" x1="6.817" y1="6.817" transform="translate(5.148 4.85)"/>
          <path id="パス_64" data-name="パス 64" class="cls-8" d="M21.217,101.83s-1.39-3.9-2.272-3.832-.475,1.323-.339,1.865c0,0-2.849-2.781-4.782-1.119,0,0-2.849,2.577,3.832,6.342Z" transform="translate(-13.22 -97.997)"/>
          <g id="グループ化_189" data-name="グループ化 189" transform="translate(3.884 3.651)">
            <path id="パス_65" data-name="パス 65" class="cls-9" d="M24.92,113.76a.952.952,0,0,0,1.323.034l3.663-3.425a.924.924,0,1,0-1.255-1.357l-3.663,3.425A.923.923,0,0,0,24.92,113.76Z" transform="translate(-24.673 -108.762)"/>
          </g>
        </g>
        <g id="グループ化_191" data-name="グループ化 191" transform="translate(12.381 38.066)">
          <path id="パス_66" data-name="パス 66" class="cls-10" d="M58.978,131.1c-.441,1.085-2.442,1.831-4.205,1.357a22.669,22.669,0,0,1-3.425-1.187c-1.628-.746-2.035-2.1-1.187-2.849a20.564,20.564,0,0,0,3.561-4.375,2.4,2.4,0,0,1,2.679-1.017,11.538,11.538,0,0,0,2.2.441,2.022,2.022,0,0,1,1.967,2.035A23.833,23.833,0,0,1,58.978,131.1Z" transform="translate(-49.729 -122.945)"/>
        </g>
        <g id="グループ化_192" data-name="グループ化 192" transform="translate(11.778 32.777)">
          <path id="パス_67" data-name="パス 67" class="cls-11" d="M75.573,111.064a2.03,2.03,0,0,1-1.594,2.476,46.343,46.343,0,0,1-24.35,0,2.044,2.044,0,0,1-1.594-2.476c.271-.78.509-1.594.78-2.374a2.006,2.006,0,0,1,2.476-1.255,40.2,40.2,0,0,0,21.026,0,2.068,2.068,0,0,1,2.476,1.255C75.064,109.47,75.335,110.284,75.573,111.064Z" transform="translate(-47.951 -107.35)"/>
        </g>
        <path id="パス_68" data-name="パス 68" class="cls-12" d="M96.409,161.7a2.2,2.2,0,1,1-2.2-2.2A2.2,2.2,0,0,1,96.409,161.7Z" transform="translate(-65.283 -109.036)"/>
        <path id="パス_69" data-name="パス 69" class="cls-12" d="M96.409,140.1a2.2,2.2,0,1,1-2.2-2.2A2.2,2.2,0,0,1,96.409,140.1Z" transform="translate(-65.283 -94.761)"/>
        <path id="パス_70" data-name="パス 70" class="cls-13" d="M78.042,68.521A1.221,1.221,0,1,1,76.821,67.3,1.216,1.216,0,0,1,78.042,68.521Z" transform="translate(-54.445 -48.105)"/>
        <path id="パス_71" data-name="パス 71" class="cls-13" d="M106.942,68.521a1.221,1.221,0,1,1-1.221-1.221A1.216,1.216,0,0,1,106.942,68.521Z" transform="translate(-73.544 -48.105)"/>
        <path id="パス_72" data-name="パス 72" class="cls-14" d="M90.348,77.03s-2.272,2.679,1.119,4.612c0,0,7.156-3.527,7.291-3.934.1-.339.068-.746-.712-.712C97.232,77,90.348,77.03,90.348,77.03Z" transform="translate(-63.699 -54.512)"/>
        <path id="パス_73" data-name="パス 73" class="cls-15" d="M81.1,13.481c0,1.526-3.018,2.781-6.749,2.781S67.6,15.007,67.6,13.481,70.618,10.7,74.349,10.7,81.1,11.955,81.1,13.481Z" transform="translate(-49.158 -10.7)"/>
        <line id="線_5" data-name="線 5" class="cls-16" x2="3.663" y2="2.103" transform="translate(23.902 29.03)"/>
        <line id="線_6" data-name="線 6" class="cls-16" x1="3.663" y2="2.103" transform="translate(28.073 29.03)"/>
      </g>
      <circle id="楕円形_39" data-name="楕円形 39" class="cls-17" cx="2.883" cy="2.883" r="2.883" transform="translate(10.683 10.581)"/>
      <circle id="楕円形_40" data-name="楕円形 40" class="cls-18" cx="2.306" cy="2.306" r="2.306" transform="translate(4.714 19.975)"/>
      <path id="パス_74" data-name="パス 74" class="cls-19" d="M50.312,2.306a2.306,2.306,0,1,1-4.612,0,2.306,2.306,0,1,1,4.612,0Z" transform="translate(-30.202)"/>
      <path id="パス_75" data-name="パス 75" class="cls-20" d="M146.612,76.006a2.306,2.306,0,1,1-2.306-2.306A2.287,2.287,0,0,1,146.612,76.006Z" transform="translate(-93.843 -48.706)"/>
      <path id="パス_76" data-name="パス 76" class="cls-21" d="M140.658,36.679A2.679,2.679,0,1,1,137.979,34,2.685,2.685,0,0,1,140.658,36.679Z" transform="translate(-89.416 -22.47)"/>
      <path id="パス_77" data-name="パス 77" class="cls-22" d="M4.07,14.735A2.035,2.035,0,1,1,2.035,12.7,2.041,2.041,0,0,1,4.07,14.735Z" transform="translate(0 -8.393)"/>
    </g>
    <rect id="長方形_836" data-name="長方形 836" class="cls-23" width="70" height="90" transform="translate(-879 2686)"/>
  </g>
</svg>
