<svg xmlns="http://www.w3.org/2000/svg" viewBox="0 0 70 90">
  <defs>
    <style>
      .cls-1 {
        fill: #f9d8e6;
      }

      .cls-2 {
        fill: #bea4a3;
      }

      .cls-3 {
        fill: #d4d4d5;
      }

      .cls-4 {
        fill: #f3aec3;
      }

      .cls-5 {
        fill: #fff;
      }

      .cls-6 {
        fill: none;
      }
    </style>
  </defs>
  <g id="グループ化_1564" data-name="グループ化 1564" transform="translate(599 -2058)">
    <g id="グループ化_1536" data-name="グループ化 1536" transform="translate(0 -36)">
      <g id="グループ化_1534" data-name="グループ化 1534" transform="translate(-597 2104)">
        <g id="グループ化_216" data-name="グループ化 216">
          <path id="パス_110" data-name="パス 110" class="cls-1" d="M62.037,24.752a11.7,11.7,0,0,0,.946-4.6A11.592,11.592,0,0,0,46.928,9.485a11.55,11.55,0,0,0-22.807.5,11.406,11.406,0,0,0-6.227-1.839A11.561,11.561,0,0,0,6.332,19.707,11.844,11.844,0,0,0,6.858,23.2a11.562,11.562,0,0,0,4.7,22.124,9.571,9.571,0,0,0,1.5-.105,11.566,11.566,0,0,0,20.495,4.02,11.578,11.578,0,0,0,20.337-3.416,11.028,11.028,0,0,0,1.892.158A11.561,11.561,0,0,0,67.344,34.421,11.683,11.683,0,0,0,62.037,24.752Z"/>
          <g id="グループ化_215" data-name="グループ化 215" transform="translate(20.048 41.91)">
            <path id="パス_111" data-name="パス 111" class="cls-2" d="M76.3,162.285s1.971,3.442,3.731,4.441c1.76,1.025,4.467,3.1,4.467,3.1s.263,4.493.631,7.383c.289,2.233,1,6.91,1,6.91l-3.863,3.1s3.784-.42,4.782-.631c1-.236,2.128-.552,2.128-.552L90.8,187.72l1.5-1.682,3.363,1.682-.631-2.339s2.128.815,2.969,1.025a10.975,10.975,0,0,0,2.917.131l-3.994-3.206s.736-5.15.841-7.278c.131-2.128.158-5.781.158-5.781s.867-.131,3.6-2.155a34.985,34.985,0,0,0,5.886-6.411l-2.759.236s-3.022,4.1-5.518,4.887a16.008,16.008,0,0,1-4.677.736l-6.49-8.067-.578.972,3.39,6.805a42.889,42.889,0,0,1-5.965-.683c-2.628-.552-5.833-3.468-5.833-3.468Z" transform="translate(-76.3 -159.5)"/>
            <path id="パス_112" data-name="パス 112" class="cls-3" d="M108.1,208l4.414.552-4.414.105Z" transform="translate(-99.744 -195.256)"/>
            <path id="パス_113" data-name="パス 113" class="cls-3" d="M108.8,215l3.206.158-3.153.5Z" transform="translate(-100.26 -200.417)"/>
            <path id="パス_114" data-name="パス 114" class="cls-3" d="M109.4,221.9l3.206.158-3.153.5Z" transform="translate(-100.703 -205.504)"/>
            <path id="パス_115" data-name="パス 115" class="cls-3" d="M146.114,216.3l-4.414.526,4.414.105Z" transform="translate(-124.516 -201.376)"/>
            <path id="パス_116" data-name="パス 116" class="cls-3" d="M149.106,223.5l-3.206.158,3.153.473Z" transform="translate(-127.612 -206.684)"/>
            <path id="パス_117" data-name="パス 117" class="cls-3" d="M148.532,230.4l-3.232.158,3.179.473Z" transform="translate(-127.17 -211.771)"/>
          </g>
        </g>
        <g id="グループ化_217" data-name="グループ化 217" transform="translate(33.764 12.744)">
          <path id="パス_118" data-name="パス 118" class="cls-4" d="M156.572,52.415A4.808,4.808,0,0,1,158.49,48.5a5.838,5.838,0,0,1,1.1,1.629,5.224,5.224,0,0,1,1.1-1.629,4.87,4.87,0,0,1,1.918,3.915c.184,3.547-3.022,5.754-3.022,5.754C159.568,58.169,156.362,55.962,156.572,52.415Z" transform="translate(-149.189 -48.5)"/>
          <path id="パス_119" data-name="パス 119" class="cls-4" d="M175.846,69.781a4.9,4.9,0,0,1,4.335.6,5.417,5.417,0,0,1-1.209,1.55,5.367,5.367,0,0,1,1.866.552,4.847,4.847,0,0,1-3.153,3.048c-3.311,1.288-6.385-1.077-6.385-1.077C171.3,74.432,172.4,70.7,175.846,69.781Z" transform="translate(-160.054 -64.027)"/>
          <path id="パス_120" data-name="パス 120" class="cls-4" d="M174.871,95.063a4.894,4.894,0,0,1,.762,4.309,5.188,5.188,0,0,1-1.839-.657,5.24,5.24,0,0,1,.079,1.944,4.818,4.818,0,0,1-3.863-2.049c-2.233-2.759-.946-6.411-.946-6.411S172.953,92.094,174.871,95.063Z" transform="translate(-158.133 -80.716)"/>
          <path id="パス_121" data-name="パス 121" class="cls-4" d="M141.1,95.063a4.894,4.894,0,0,0-.762,4.309,5.188,5.188,0,0,0,1.839-.657,6.091,6.091,0,0,0-.079,1.944,4.818,4.818,0,0,0,3.863-2.049c2.233-2.759.946-6.411.946-6.411S143.044,92.094,141.1,95.063Z" transform="translate(-137.08 -80.716)"/>
          <path id="パス_122" data-name="パス 122" class="cls-4" d="M133.492,69.781a4.9,4.9,0,0,0-4.335.6,6.154,6.154,0,0,0,1.209,1.55,5.366,5.366,0,0,0-1.866.552,4.847,4.847,0,0,0,3.153,3.048c3.311,1.288,6.385-1.077,6.385-1.077C138.012,74.432,136.934,70.7,133.492,69.781Z" transform="translate(-128.5 -64.027)"/>
        </g>
        <g id="グループ化_218" data-name="グループ化 218" transform="translate(28.877 32.319)">
          <path id="パス_123" data-name="パス 123" class="cls-4" d="M124.887,125.1a2.6,2.6,0,0,1,1.025-2.1,2.54,2.54,0,0,1,.578.867,2.54,2.54,0,0,1,.578-.867,2.6,2.6,0,0,1,1.025,2.1,3.8,3.8,0,0,1-1.6,3.074A3.856,3.856,0,0,1,124.887,125.1Z" transform="translate(-120.946 -123)"/>
          <path id="パス_124" data-name="パス 124" class="cls-4" d="M135.315,134.366a2.617,2.617,0,0,1,2.312.315,3.238,3.238,0,0,1-.631.815,3.084,3.084,0,0,1,1,.289,2.631,2.631,0,0,1-1.682,1.629,3.826,3.826,0,0,1-3.416-.578A3.734,3.734,0,0,1,135.315,134.366Z" transform="translate(-126.854 -131.291)"/>
          <path id="パス_125" data-name="パス 125" class="cls-4" d="M134.646,147.95a2.555,2.555,0,0,1,.394,2.312,2.607,2.607,0,0,1-.972-.368,2.488,2.488,0,0,1,.026,1.051,2.563,2.563,0,0,1-2.076-1.1,3.822,3.822,0,0,1-.5-3.442A3.837,3.837,0,0,1,134.646,147.95Z" transform="translate(-125.686 -140.251)"/>
          <path id="パス_126" data-name="パス 126" class="cls-4" d="M116.662,147.95a2.555,2.555,0,0,0-.394,2.312,2.607,2.607,0,0,0,.972-.368,2.487,2.487,0,0,0-.026,1.051,2.563,2.563,0,0,0,2.076-1.1,3.822,3.822,0,0,0,.5-3.442A3.837,3.837,0,0,0,116.662,147.95Z" transform="translate(-114.507 -140.251)"/>
          <path id="パス_127" data-name="パス 127" class="cls-4" d="M112.554,134.366a2.617,2.617,0,0,0-2.312.315,3.059,3.059,0,0,0,.657.815,3.084,3.084,0,0,0-1,.289,2.631,2.631,0,0,0,1.682,1.629,3.826,3.826,0,0,0,3.416-.578A3.881,3.881,0,0,0,112.554,134.366Z" transform="translate(-109.9 -131.291)"/>
        </g>
        <g id="グループ化_219" data-name="グループ化 219" transform="translate(45.457 26.749)">
          <path id="パス_128" data-name="パス 128" class="cls-5" d="M190.589,104.244A3.015,3.015,0,0,1,191.8,101.8a3.843,3.843,0,0,1,.683,1,3.189,3.189,0,0,1,.683-1,3.015,3.015,0,0,1,1.209,2.444,4.507,4.507,0,0,1-1.892,3.573A4.507,4.507,0,0,1,190.589,104.244Z" transform="translate(-185.964 -101.8)"/>
          <path id="パス_129" data-name="パス 129" class="cls-5" d="M202.638,115.1a2.963,2.963,0,0,1,2.706.394,3.945,3.945,0,0,1-.762.972,3.337,3.337,0,0,1,1.182.342,2.984,2.984,0,0,1-1.971,1.892,4.516,4.516,0,0,1-3.994-.683A4.4,4.4,0,0,1,202.638,115.1Z" transform="translate(-192.758 -111.504)"/>
          <path id="パス_130" data-name="パス 130" class="cls-5" d="M202.062,130.739a3.009,3.009,0,0,1,.473,2.68,3.775,3.775,0,0,1-1.156-.42,3.843,3.843,0,0,1,.053,1.209,3.044,3.044,0,0,1-2.417-1.288,4.521,4.521,0,0,1-.578-4.02A4.674,4.674,0,0,1,202.062,130.739Z" transform="translate(-191.578 -121.779)"/>
          <path id="パス_131" data-name="パス 131" class="cls-5" d="M181.013,130.739a3.009,3.009,0,0,0-.473,2.68A3.775,3.775,0,0,0,181.7,133a3.842,3.842,0,0,0-.053,1.209,3.044,3.044,0,0,0,2.417-1.288,4.521,4.521,0,0,0,.578-4.02A4.674,4.674,0,0,0,181.013,130.739Z" transform="translate(-178.465 -121.779)"/>
          <path id="パス_132" data-name="パス 132" class="cls-5" d="M176.127,115.1a2.963,2.963,0,0,0-2.706.394,3.945,3.945,0,0,0,.762.972,3.336,3.336,0,0,0-1.182.342,2.984,2.984,0,0,0,1.971,1.892,4.516,4.516,0,0,0,3.994-.683A4.4,4.4,0,0,0,176.127,115.1Z" transform="translate(-173 -111.504)"/>
        </g>
        <g id="グループ化_220" data-name="グループ化 220" transform="translate(19.26 24.2)">
          <path id="パス_133" data-name="パス 133" class="cls-5" d="M90.883,94.544A3.015,3.015,0,0,1,92.091,92.1a3.843,3.843,0,0,1,.683,1,3.189,3.189,0,0,1,.683-1,3.015,3.015,0,0,1,1.209,2.444,4.507,4.507,0,0,1-1.892,3.573A4.363,4.363,0,0,1,90.883,94.544Z" transform="translate(-86.258 -92.1)"/>
          <path id="パス_134" data-name="パス 134" class="cls-5" d="M102.938,105.4a2.963,2.963,0,0,1,2.706.394,3.945,3.945,0,0,1-.762.972,3.337,3.337,0,0,1,1.182.342A2.984,2.984,0,0,1,104.094,109a4.516,4.516,0,0,1-3.994-.683A4.453,4.453,0,0,1,102.938,105.4Z" transform="translate(-93.058 -101.804)"/>
          <path id="パス_135" data-name="パス 135" class="cls-5" d="M102.362,121.039a3.009,3.009,0,0,1,.473,2.68,3.776,3.776,0,0,1-1.156-.42,3.842,3.842,0,0,1,.053,1.209,3.044,3.044,0,0,1-2.417-1.288,4.521,4.521,0,0,1-.578-4.02A4.772,4.772,0,0,1,102.362,121.039Z" transform="translate(-91.878 -112.079)"/>
          <path id="パス_136" data-name="パス 136" class="cls-5" d="M81.213,121.039a3.009,3.009,0,0,0-.473,2.68,3.776,3.776,0,0,0,1.156-.42,3.843,3.843,0,0,0-.053,1.209,3.044,3.044,0,0,0,2.417-1.288,4.521,4.521,0,0,0,.578-4.02A4.772,4.772,0,0,0,81.213,121.039Z" transform="translate(-78.691 -112.079)"/>
          <path id="パス_137" data-name="パス 137" class="cls-5" d="M76.427,105.4a2.963,2.963,0,0,0-2.706.394,3.945,3.945,0,0,0,.762.972,3.337,3.337,0,0,0-1.182.342A2.984,2.984,0,0,0,75.271,109a4.516,4.516,0,0,0,3.994-.683A4.453,4.453,0,0,0,76.427,105.4Z" transform="translate(-73.3 -101.804)"/>
        </g>
      </g>
      <rect id="長方形_826" data-name="長方形 826" class="cls-6" width="70" height="90" transform="translate(-599 2094)"/>
    </g>
  </g>
</svg>
